<svg width="32" height="32" viewBox="0 0 32 32" fill="none" xmlns="http://www.w3.org/2000/svg">
<g clip-path="url(#clip0_1636_1779)">
<path opacity="0.958" fill-rule="evenodd" clip-rule="evenodd" d="M31.9688 12.9063C31.9688 14.8646 31.9688 16.823 31.9688 18.7813C31.6021 20.8774 30.4979 22.4607 28.6562 23.5313C28.6226 25.0339 28.5704 26.5339 28.5 28.0313C28.1179 29.2259 27.3158 29.9655 26.0938 30.25C19.3438 30.2917 12.5938 30.2917 5.84375 30.25C4.52083 29.9271 3.69792 29.1042 3.375 27.7813C3.33333 25.0313 3.33333 22.2813 3.375 19.5313C3.70519 18.1802 4.54894 17.3574 5.90625 17.0625C8.40625 17.0209 10.9062 17.0209 13.4062 17.0625C13.7646 17.2613 13.8792 17.5634 13.75 17.9688C13.642 18.1846 13.4649 18.2992 13.2188 18.3125C10.8229 18.3334 8.42706 18.3542 6.03125 18.375C5.1675 18.6537 4.69875 19.2474 4.625 20.1563C4.58333 22.4896 4.58333 24.823 4.625 27.1563C4.69875 28.0652 5.1675 28.6589 6.03125 28.9375C9.34206 29.0095 12.6546 29.0407 15.9688 29.0313C19.2829 29.0407 22.5954 29.0095 25.9062 28.9375C26.6042 28.7396 27.0521 28.2917 27.25 27.5938C27.3377 26.4294 27.369 25.2628 27.3438 24.0938C26.7451 24.2214 26.1409 24.3047 25.5312 24.3438C24.9849 24.2234 24.7871 23.8901 24.9375 23.3438C25.0104 23.2292 25.1042 23.1355 25.2188 23.0625C25.9412 23.0395 26.6391 22.9041 27.3125 22.6563C27.3676 21.6749 27.3468 20.6957 27.25 19.7188C27.0521 19.0209 26.6042 18.573 25.9062 18.375C23.5104 18.3542 21.1146 18.3334 18.7188 18.3125C18.1958 18.1946 18.0187 17.8717 18.1875 17.3438C18.2839 17.2264 18.3985 17.1327 18.5312 17.0625C21.0312 17.0209 23.5312 17.0209 26.0312 17.0625C27.3886 17.3574 28.2323 18.1802 28.5625 19.5313C28.5833 20.3438 28.6042 21.1563 28.625 21.9688C29.9431 20.916 30.6306 19.541 30.6875 17.8438C30.7423 16.2383 30.7214 14.6341 30.625 13.0313C30.4465 11.9348 29.9778 10.9869 29.2188 10.1875C28.9686 10.529 28.7498 10.9144 28.5625 11.3438C26.5753 14.0894 23.9608 14.9332 20.7188 13.875C19.3077 13.2869 18.2452 12.3181 17.5312 10.9688C16.4277 10.9167 15.3235 10.8855 14.2188 10.875C14.0797 10.84 13.9547 10.7775 13.8438 10.6875C13.5199 10.3533 13.1866 10.0304 12.8438 9.7188C12.5009 10.0304 12.1676 10.3533 11.8438 10.6875C11.7328 10.7775 11.6078 10.84 11.4688 10.875C10.4062 10.9167 9.34375 10.9167 8.28125 10.875C8.17212 10.8456 8.06794 10.8039 7.96875 10.75C7.60419 10.3855 7.23956 10.0209 6.875 9.6563C6.463 10.1104 6.01507 10.5166 5.53125 10.875C4.67708 10.9167 3.82292 10.9167 2.96875 10.875C2.73492 10.7664 2.537 10.6102 2.375 10.4063C1.58129 9.51905 0.779212 8.64405 -0.03125 7.7813C-0.03125 7.5938 -0.03125 7.4063 -0.03125 7.2188C0.643806 6.49167 1.35214 5.79377 2.09375 5.12505C7.21875 5.10422 12.3438 5.08338 17.4688 5.06255C19.307 2.06713 21.932 1.04629 25.3438 2.00005C28.2248 3.27027 29.6101 5.48902 29.5 8.6563C30.8558 9.76386 31.6787 11.1805 31.9688 12.9063ZM23.0938 2.9063C25.9748 3.14156 27.6623 4.68322 28.1562 7.5313C28.1354 7.63549 28.1146 7.73961 28.0938 7.8438C27.6875 7.68055 27.2708 7.55555 26.8438 7.4688C26.5549 6.32805 25.8153 5.74471 24.625 5.7188C23.4686 5.77128 22.7394 6.35461 22.4375 7.4688C22.2394 8.8133 22.7707 9.71955 24.0312 10.1875C25.3186 10.4241 26.2456 9.95536 26.8125 8.7813C27.2379 8.91592 27.6442 9.09305 28.0312 9.31255C26.9523 12.144 24.9106 13.3315 21.9062 12.875C19.8918 12.2773 18.6523 10.9544 18.1875 8.9063C17.8926 6.2351 18.9655 4.34968 21.4062 3.25005C21.9622 3.05764 22.5247 2.94306 23.0938 2.9063ZM2.59375 6.4063C7.38544 6.4063 12.1771 6.4063 16.9688 6.4063C16.7208 7.46861 16.7208 8.53111 16.9688 9.5938C16.1976 9.60424 15.4268 9.5938 14.6562 9.56255C14.1752 9.06061 13.6752 8.58142 13.1562 8.12505C12.8635 8.05617 12.5927 8.0978 12.3438 8.25005C11.9062 8.68755 11.4688 9.12505 11.0312 9.56255C10.2396 9.60424 9.44794 9.60424 8.65625 9.56255C8.17706 9.08336 7.69794 8.60424 7.21875 8.12505C6.926 8.05617 6.65519 8.0978 6.40625 8.25005C5.96875 8.68755 5.53125 9.12505 5.09375 9.56255C4.53009 9.61455 3.96759 9.60411 3.40625 9.5313C2.78125 8.86461 2.15625 8.19799 1.53125 7.5313C1.88677 7.15505 2.24093 6.78005 2.59375 6.4063ZM24.4062 7.0313C24.7654 6.98092 25.0779 7.07467 25.3438 7.31255C24.9069 7.57055 24.7924 7.93511 25 8.4063C25.0987 8.50261 25.2133 8.57555 25.3438 8.62505C24.7887 9.09917 24.2783 9.04705 23.8125 8.4688C23.5673 7.79374 23.7652 7.31455 24.4062 7.0313Z" fill="#DC2626"/>
<path opacity="0.907" fill-rule="evenodd" clip-rule="evenodd" d="M15.6564 17.0312C16.3954 16.9264 16.6975 17.2389 16.5627 17.9687C16.3342 18.2671 16.0322 18.3609 15.6564 18.2499C15.358 18.0215 15.2642 17.7194 15.3752 17.3437C15.4605 17.2273 15.5543 17.1232 15.6564 17.0312Z" fill="#DC2626"/>
<path opacity="0.948" fill-rule="evenodd" clip-rule="evenodd" d="M8.5314 21.2813C13.4898 21.2708 18.4481 21.2813 23.4064 21.3125C23.784 21.5468 23.8778 21.8697 23.6876 22.2813C23.5505 22.4488 23.3735 22.5426 23.1564 22.5625C18.3647 22.6042 13.5731 22.6042 8.7814 22.5625C8.26265 22.4733 8.06477 22.1713 8.18765 21.6563C8.27265 21.4986 8.38721 21.3736 8.5314 21.2813Z" fill="#DC2626"/>
<path opacity="0.943" fill-rule="evenodd" clip-rule="evenodd" d="M8.5314 24.7813C10.4065 24.7708 12.2815 24.7813 14.1564 24.8125C14.5245 25.0488 14.6183 25.3717 14.4376 25.7813C14.3005 25.9488 14.1235 26.0426 13.9064 26.0625C12.1981 26.1042 10.4897 26.1042 8.7814 26.0625C8.26265 25.9733 8.06477 25.6713 8.18765 25.1563C8.27265 24.9986 8.38721 24.8736 8.5314 24.7813Z" fill="#DC2626"/>
<path opacity="0.943" fill-rule="evenodd" clip-rule="evenodd" d="M17.4062 24.7813C19.4063 24.7708 21.4063 24.7813 23.4062 24.8125C23.7838 25.0468 23.8775 25.3697 23.6874 25.7813C23.5503 25.9488 23.3732 26.0426 23.1562 26.0625C21.3228 26.1042 19.4895 26.1042 17.6562 26.0625C17.0897 25.9279 16.9126 25.5841 17.1249 25.0313C17.2122 24.9331 17.306 24.8498 17.4062 24.7813Z" fill="#DC2626"/>
</g>
<defs>
<clipPath id="clip0_1636_1779">
<rect width="32" height="32" fill="white"/>
</clipPath>
</defs>
</svg>
