<svg width="32" height="32" viewBox="0 0 32 32" fill="none" xmlns="http://www.w3.org/2000/svg">
<g clip-path="url(#clip0_1636_1676)">
<path opacity="0.981" fill-rule="evenodd" clip-rule="evenodd" d="M31.9688 17.5937C31.9688 18.8437 31.9688 20.0937 31.9688 21.3437C31.8537 22.618 31.6558 23.8888 31.375 25.1562C31.2476 25.7466 31.0705 26.3196 30.8438 26.875C30.3813 26.9458 29.9125 26.9771 29.4375 26.9687C28.9625 26.9771 28.4937 26.9458 28.0312 26.875C27.9713 26.7863 27.9192 26.6925 27.875 26.5937C27.8438 25.719 27.8333 24.844 27.8438 23.9687C27.5521 23.9687 27.2604 23.9687 26.9688 23.9687C26.9958 24.6818 26.9646 25.3902 26.875 26.0937C26.6679 26.5093 26.3449 26.7905 25.9062 26.9375C20.4479 26.9791 14.9896 26.9791 9.53125 26.9375C9.37819 26.8921 9.23231 26.8296 9.09375 26.75C8.30206 26 7.51044 25.25 6.71875 24.5C6.15625 24.4791 5.59375 24.4583 5.03125 24.4375C4.52083 24.2604 4.17708 23.9166 4 23.4062C3.96876 22.7607 3.95834 22.1149 3.96875 21.4687C3.63542 21.4687 3.30208 21.4687 2.96875 21.4687C2.97916 22.3856 2.96874 23.3023 2.9375 24.2187C2.91411 24.276 2.88286 24.3281 2.84375 24.375C1.97463 24.4769 1.09963 24.4977 0.21875 24.4375C0.103111 24.3943 0.0197772 24.3215 -0.03125 24.2187C-0.03125 19.7187 -0.03125 15.2187 -0.03125 10.7187C0.0197772 10.616 0.103111 10.5431 0.21875 10.5C1.09963 10.4397 1.97463 10.4605 2.84375 10.5625C2.88286 10.6093 2.91411 10.6615 2.9375 10.7187C2.97917 11.3854 2.97917 12.052 2.9375 12.7187C2.90625 12.8333 2.83333 12.9062 2.71875 12.9375C2.55208 12.9791 2.38542 12.9791 2.21875 12.9375C2.10417 12.9062 2.03125 12.8333 2 12.7187C1.96878 12.3026 1.95836 11.8859 1.96875 11.4687C1.63542 11.4687 1.30208 11.4687 0.96875 11.4687C0.96875 15.4687 0.96875 19.4687 0.96875 23.4687C1.30208 23.4687 1.63542 23.4687 1.96875 23.4687C1.95833 20.2186 1.96875 16.9686 2 13.7187C2.03125 13.6041 2.10417 13.5312 2.21875 13.5C2.45276 13.4419 2.67151 13.4731 2.875 13.5937C2.96559 14.2121 2.99684 14.8371 2.96875 15.4687C3.30208 15.4687 3.63542 15.4687 3.96875 15.4687C3.95834 14.8225 3.96876 14.1767 4 13.5312C4.17708 13.0208 4.52083 12.677 5.03125 12.5C5.59375 12.4791 6.15625 12.4583 6.71875 12.4375C7.36275 11.856 7.98775 11.2518 8.59375 10.625C8.82606 10.4134 9.07606 10.2259 9.34375 10.0625C10.3811 9.97145 11.4227 9.9402 12.4688 9.9687C12.4688 9.30202 12.4688 8.63539 12.4688 7.9687C11.8851 7.97908 11.3017 7.9687 10.7188 7.93745C10.6615 7.91408 10.6094 7.88283 10.5625 7.8437C10.4917 7.39164 10.4604 6.93333 10.4688 6.4687C10.4604 6.0041 10.4917 5.54577 10.5625 5.0937C10.6094 5.05459 10.6615 5.02334 10.7188 4.99995C12.3021 4.98953 13.8854 4.97912 15.4688 4.9687C17.0991 4.95881 18.7241 4.99006 20.3438 5.06245C20.3829 5.10935 20.4141 5.16144 20.4375 5.2187C20.4479 5.63537 20.4583 6.05203 20.4688 6.4687C20.4771 6.93333 20.4458 7.39164 20.375 7.8437C20.3281 7.88283 20.276 7.91408 20.2188 7.93745C19.6358 7.9687 19.0524 7.97908 18.4688 7.9687C18.4791 8.38589 18.4688 8.80258 18.4375 9.2187C18.3419 9.4072 18.1857 9.49052 17.9688 9.4687C17.7518 9.49052 17.5956 9.4072 17.5 9.2187C17.4688 8.80258 17.4584 8.38589 17.4688 7.9687C16.1354 7.9687 14.8021 7.9687 13.4688 7.9687C13.4688 8.63539 13.4688 9.30202 13.4688 9.9687C16.448 9.95827 19.4271 9.9687 22.4062 9.99995C22.7456 10.1126 23.0268 10.3105 23.25 10.5937C23.5609 11.04 23.8838 11.4775 24.2188 11.9062C24.7801 11.9582 25.3426 11.9895 25.9062 12C26.4167 12.177 26.7604 12.5208 26.9375 13.0312C26.9688 13.8435 26.9792 14.656 26.9688 15.4687C27.2604 15.4687 27.5521 15.4687 27.8438 15.4687C27.8333 14.4268 27.8438 13.3851 27.875 12.3437C27.9178 12.1839 28.0116 12.0693 28.1562 12C28.5833 11.9895 29.0104 11.9791 29.4375 11.9687C29.9125 11.9603 30.3813 11.9916 30.8438 12.0625C31.1656 12.9017 31.4052 13.7663 31.5625 14.6562C31.7348 15.6396 31.8702 16.6188 31.9688 17.5937ZM11.4688 5.9687C14.1354 5.9687 16.8021 5.9687 19.4688 5.9687C19.4688 6.30202 19.4688 6.63539 19.4688 6.9687C16.8021 6.9687 14.1354 6.9687 11.4688 6.9687C11.4688 6.63539 11.4688 6.30202 11.4688 5.9687ZM9.96875 10.9687C13.9688 10.9583 17.9688 10.9687 21.9688 11C22.1271 11.0322 22.2625 11.1051 22.375 11.2187C22.7292 11.6979 23.0833 12.177 23.4375 12.6562C23.4583 16.8437 23.4792 21.0312 23.5 25.2187C23.5312 25.3333 23.6042 25.4062 23.7188 25.4375C23.8854 25.4791 24.0521 25.4791 24.2188 25.4375C24.3333 25.4062 24.4062 25.3333 24.4375 25.2187C24.4688 21.1355 24.4792 17.0521 24.4688 12.9687C24.8703 12.9456 25.2661 12.9768 25.6562 13.0625C25.8184 13.1461 25.9121 13.2816 25.9375 13.4687C25.9792 17.4687 25.9792 21.4687 25.9375 25.4687C25.9062 25.75 25.75 25.9062 25.4688 25.9375C20.3021 25.9791 15.1354 25.9791 9.96875 25.9375C9.85962 25.908 9.75544 25.8663 9.65625 25.8125C8.9315 25.1217 8.21275 24.4238 7.5 23.7187C7.47919 20.552 7.45831 17.3854 7.4375 14.2187C7.34194 14.0302 7.18569 13.9469 6.96875 13.9687C6.75181 13.9469 6.59556 14.0302 6.5 14.2187C6.46875 17.302 6.45831 20.3853 6.46875 23.4687C6.06718 23.4918 5.67135 23.4606 5.28125 23.375C5.11911 23.2913 5.02536 23.1558 5 22.9687C4.95833 19.9687 4.95833 16.9687 5 13.9687C5.03125 13.6875 5.1875 13.5312 5.46875 13.5C6.09994 13.4969 6.72494 13.4552 7.34375 13.375C8.09556 12.6023 8.86637 11.8523 9.65625 11.125C9.76969 11.0776 9.87381 11.0256 9.96875 10.9687ZM28.9062 12.9687C29.3021 12.9687 29.6979 12.9687 30.0938 12.9687C31.1764 17.3019 31.1764 21.6352 30.0938 25.9687C29.6979 25.9687 29.3021 25.9687 28.9062 25.9687C28.9062 21.6354 28.9062 17.302 28.9062 12.9687ZM14.7188 14.0312C15.3041 14.0174 15.8874 14.0383 16.4688 14.0937C16.4584 14.4069 16.4688 14.7194 16.5 15.0312C16.5729 15.1041 16.6458 15.177 16.7188 15.25C17.0703 15.4049 17.4036 15.5924 17.7188 15.8125C17.8646 15.8541 18.0104 15.8541 18.1562 15.8125C18.3491 15.69 18.547 15.5754 18.75 15.4687C19.1839 15.94 19.5068 16.4817 19.7188 17.0937C19.5395 17.2207 19.352 17.3353 19.1562 17.4375C19.0594 17.5133 18.9866 17.6071 18.9375 17.7187C18.8958 18.2187 18.8958 18.7187 18.9375 19.2187C18.9866 19.3303 19.0594 19.4241 19.1562 19.5C19.352 19.6021 19.5395 19.7167 19.7188 19.8437C19.5068 20.4557 19.1839 20.9974 18.75 21.4687C18.4913 21.308 18.2204 21.183 17.9375 21.0937C17.8646 21.1041 17.7917 21.1145 17.7188 21.125C17.2945 21.3628 16.8883 21.6232 16.5 21.9062C16.4688 22.218 16.4584 22.5305 16.4688 22.8437C15.8021 22.927 15.1354 22.927 14.4688 22.8437C14.4791 22.5305 14.4687 22.218 14.4375 21.9062C14.3646 21.8333 14.2917 21.7604 14.2188 21.6875C13.8672 21.5325 13.5339 21.345 13.2188 21.125C13.0729 21.0833 12.9271 21.0833 12.7812 21.125C12.5884 21.2475 12.3905 21.362 12.1875 21.4687C11.7536 20.9974 11.4307 20.4557 11.2188 19.8437C11.3854 19.6978 11.5729 19.5831 11.7812 19.5C11.8781 19.4241 11.9509 19.3303 12 19.2187C12.0417 18.7187 12.0417 18.2187 12 17.7187C11.9509 17.6071 11.8781 17.5133 11.7812 17.4375C11.5855 17.3353 11.398 17.2207 11.2188 17.0937C11.426 16.4702 11.7593 15.9286 12.2188 15.4687C12.4608 15.6393 12.7212 15.7643 13 15.8437C13.0729 15.8333 13.1458 15.8229 13.2188 15.8125C13.5339 15.5924 13.8672 15.4049 14.2188 15.25C14.2917 15.177 14.3646 15.1041 14.4375 15.0312C14.4687 14.7194 14.4791 14.4069 14.4688 14.0937C14.5687 14.1105 14.652 14.0896 14.7188 14.0312ZM2.96875 16.4687C3.30208 16.4687 3.63542 16.4687 3.96875 16.4687C3.96875 17.802 3.96875 19.1354 3.96875 20.4687C3.63542 20.4687 3.30208 20.4687 2.96875 20.4687C2.96875 19.1354 2.96875 17.802 2.96875 16.4687ZM26.9688 16.4687C27.2604 16.4687 27.5521 16.4687 27.8438 16.4687C27.8438 18.6354 27.8438 20.802 27.8438 22.9687C27.5521 22.9687 27.2604 22.9687 26.9688 22.9687C26.9688 20.802 26.9688 18.6354 26.9688 16.4687ZM15.1562 17.5312C16.2353 17.516 16.5999 18.016 16.25 19.0312C15.8593 19.4381 15.4114 19.511 14.9062 19.25C14.4993 18.8593 14.4264 18.4113 14.6875 17.9062C14.8196 17.7424 14.9759 17.6174 15.1562 17.5312Z" fill="#DC2626"/>
<path opacity="0.936" fill-rule="evenodd" clip-rule="evenodd" d="M14.6562 12.9687C15.1983 12.9584 15.74 12.9687 16.2812 13C16.6251 13.0443 16.9584 13.1276 17.2812 13.25C17.3333 13.302 17.3854 13.3542 17.4375 13.4062C17.4583 13.7395 17.4792 14.0729 17.5 14.4062C17.6468 14.49 17.7927 14.5734 17.9375 14.6562C18.1701 14.566 18.3888 14.4514 18.5938 14.3125C18.8103 14.2614 19.0186 14.2823 19.2188 14.375C20.0972 15.2043 20.6597 16.2147 20.9062 17.4062C20.8653 17.6037 20.7611 17.7599 20.5938 17.875C19.7604 18.2708 19.7604 18.6667 20.5938 19.0625C20.7611 19.1775 20.8653 19.3338 20.9062 19.5312C20.6614 20.7824 20.0573 21.8137 19.0938 22.625C18.9271 22.6667 18.7604 22.6667 18.5938 22.625C18.4062 22.5208 18.2188 22.4167 18.0312 22.3125C17.8443 22.3375 17.6673 22.4104 17.5 22.5312C17.4792 22.8645 17.4583 23.1979 17.4375 23.5312C17.3616 23.628 17.2679 23.7009 17.1562 23.75C15.9817 24.0589 14.8151 24.0381 13.6562 23.6875C13.6042 23.6354 13.5521 23.5833 13.5 23.5312C13.4792 23.1979 13.4583 22.8645 13.4375 22.5312C13.2907 22.4475 13.1448 22.3641 13 22.2812C12.7674 22.3714 12.5487 22.486 12.3438 22.625C12.1272 22.676 11.9189 22.6552 11.7188 22.5625C10.8495 21.7412 10.287 20.7412 10.0312 19.5625C10.0583 19.3479 10.1624 19.1812 10.3438 19.0625C11.1771 18.6667 11.1771 18.2708 10.3438 17.875C10.1624 17.7562 10.0583 17.5896 10.0312 17.375C10.2852 16.1365 10.8894 15.1157 11.8438 14.3125C12.0104 14.2708 12.1771 14.2708 12.3438 14.3125C12.5312 14.4167 12.7188 14.5208 12.9062 14.625C13.0932 14.6 13.2703 14.527 13.4375 14.4062C13.4583 14.0729 13.4792 13.7395 13.5 13.4062C13.5521 13.3542 13.6042 13.302 13.6562 13.25C13.9921 13.135 14.3254 13.0412 14.6562 12.9687ZM14.7188 14.0312C14.652 14.0896 14.5687 14.1105 14.4688 14.0937C14.4791 14.4069 14.4687 14.7194 14.4375 15.0312C14.3646 15.1042 14.2917 15.177 14.2188 15.25C13.8672 15.4049 13.5339 15.5924 13.2188 15.8125C13.1458 15.8229 13.0729 15.8333 13 15.8437C12.7213 15.7644 12.4608 15.6394 12.2188 15.4687C11.7593 15.9286 11.426 16.4702 11.2188 17.0937C11.398 17.2207 11.5855 17.3353 11.7812 17.4375C11.8781 17.5134 11.9509 17.6071 12 17.7187C12.0417 18.2187 12.0417 18.7187 12 19.2187C11.9509 19.3304 11.8781 19.4241 11.7812 19.5C11.5729 19.5832 11.3854 19.6978 11.2188 19.8437C11.4307 20.4557 11.7536 20.9974 12.1875 21.4687C12.3905 21.362 12.5884 21.2475 12.7812 21.125C12.9271 21.0833 13.0729 21.0833 13.2188 21.125C13.5339 21.345 13.8672 21.5325 14.2188 21.6875C14.2917 21.7604 14.3646 21.8333 14.4375 21.9062C14.4687 22.218 14.4791 22.5305 14.4688 22.8437C15.1354 22.927 15.8021 22.927 16.4688 22.8437C16.4584 22.5305 16.4688 22.218 16.5 21.9062C16.8882 21.6232 17.2945 21.3628 17.7188 21.125C17.7917 21.1145 17.8646 21.1042 17.9375 21.0937C18.2204 21.183 18.4913 21.308 18.75 21.4687C19.1839 20.9974 19.5068 20.4557 19.7188 19.8437C19.5395 19.7167 19.352 19.6022 19.1562 19.5C19.0594 19.4241 18.9866 19.3304 18.9375 19.2187C18.8958 18.7187 18.8958 18.2187 18.9375 17.7187C18.9866 17.6071 19.0594 17.5134 19.1562 17.4375C19.352 17.3353 19.5395 17.2207 19.7188 17.0937C19.5068 16.4817 19.1839 15.94 18.75 15.4687C18.547 15.5754 18.3491 15.69 18.1562 15.8125C18.0104 15.8542 17.8646 15.8542 17.7188 15.8125C17.4036 15.5924 17.0703 15.4049 16.7188 15.25C16.6458 15.177 16.5729 15.1042 16.5 15.0312C16.4688 14.7194 16.4584 14.4069 16.4688 14.0937C15.8874 14.0383 15.3041 14.0174 14.7188 14.0312ZM15.1562 17.5312C14.9759 17.6174 14.8196 17.7424 14.6875 17.9062C14.4264 18.4114 14.4993 18.8593 14.9062 19.25C15.4114 19.511 15.8593 19.4382 16.25 19.0312C16.5999 18.016 16.2353 17.516 15.1562 17.5312Z" fill="#DC2626"/>
<path opacity="0.93" fill-rule="evenodd" clip-rule="evenodd" d="M14.9685 16.4687C16.7484 16.3632 17.5713 17.1965 17.4373 18.9687C17.0401 20.1524 16.2172 20.642 14.9685 20.4375C13.7849 20.0403 13.2953 19.2174 13.4998 17.9687C13.7091 17.1866 14.1987 16.6866 14.9685 16.4687ZM15.156 17.5312C14.9757 17.6174 14.8194 17.7424 14.6873 17.9062C14.4262 18.4114 14.4991 18.8593 14.906 19.25C15.4112 19.5111 15.8591 19.4382 16.2498 19.0312C16.5997 18.0161 16.2351 17.5161 15.156 17.5312Z" fill="#DC2626"/>
</g>
<defs>
<clipPath id="clip0_1636_1676">
<rect width="32" height="32" fill="white"/>
</clipPath>
</defs>
</svg>
