<svg width="35" height="35" viewBox="0 0 35 35" fill="none" xmlns="http://www.w3.org/2000/svg">
<path opacity="0.914" fill-rule="evenodd" clip-rule="evenodd" d="M5.36621 7.55373C10.6566 7.52017 15.943 7.55435 21.2256 7.65627C21.645 7.86716 21.9298 8.19761 22.0801 8.64748C22.3937 10.4671 22.6786 12.29 22.9346 14.1162C25.8956 14.3007 28.8578 14.4716 31.8213 14.6289C32.1923 14.6892 32.4885 14.8715 32.71 15.1758C33.0575 15.1876 33.3993 15.2332 33.7354 15.3125C33.7695 15.3467 33.8037 15.3809 33.8379 15.4151C33.8835 16.3037 33.8835 17.1924 33.8379 18.0811C33.7866 18.1239 33.7296 18.158 33.667 18.1836C33.3716 18.2177 33.0754 18.2291 32.7783 18.2178C32.7951 18.7426 32.6129 19.1869 32.2314 19.5508C32.7381 19.5582 33.2394 19.6038 33.7354 19.6875C33.8306 19.7676 33.8876 19.8701 33.9063 19.9951C33.9693 20.6838 33.9466 21.3674 33.8379 22.0459C33.8037 22.1257 33.7468 22.1826 33.667 22.2168C33.4402 22.2509 33.2124 22.2623 32.9834 22.251C33.1894 24.4714 32.3008 26.0778 30.3174 27.0703C28.023 27.8446 26.1659 27.2635 24.7461 25.3272C24.1846 24.377 23.9682 23.3516 24.0967 22.251C21.1345 22.251 18.1722 22.251 15.21 22.251C15.3653 24.9308 14.1576 26.6283 11.5869 27.3438C9.30768 27.6229 7.6557 26.7456 6.63086 24.7119C6.315 23.9168 6.21246 23.0965 6.32324 22.251C5.50262 22.2624 4.6823 22.251 3.86231 22.2168C3.7645 22.185 3.68474 22.128 3.62305 22.0459C3.57747 21.294 3.57747 20.542 3.62305 19.7901C3.80888 19.6332 4.02534 19.5649 4.27246 19.585C4.28383 19.1287 4.27244 18.6729 4.23828 18.2178C3.46108 18.6614 2.67495 18.6728 1.87988 18.252C1.35203 17.8457 1.06721 17.3102 1.02539 16.6455C0.979817 15.2556 0.979817 13.8656 1.02539 12.4756C1.14303 11.2529 1.81523 10.592 3.04199 10.4932C3.4653 10.4956 3.85267 10.6095 4.2041 10.835C4.24845 10.0814 4.30541 9.32944 4.375 8.57912C4.58154 8.11066 4.91195 7.76886 5.36621 7.55373ZM5.70801 8.30569C10.6983 8.29427 15.6885 8.30569 20.6787 8.33986C21.0415 8.42921 21.2693 8.65705 21.3623 9.02346C15.939 9.0804 10.5158 9.06905 5.09278 8.98928C5.2061 8.67127 5.41118 8.44336 5.70801 8.30569ZM5.09278 9.80959C8.35126 9.80959 11.6097 9.80959 14.8682 9.80959C14.8682 11.6097 14.8682 13.4099 14.8682 15.21C11.6097 15.21 8.35126 15.21 5.09278 15.21C5.09278 15.0049 5.09278 14.7998 5.09278 14.5947C6.43614 14.5575 6.91469 13.8739 6.52832 12.544C6.91428 11.213 6.43574 10.5294 5.09278 10.4932C5.09278 10.2653 5.09278 10.0374 5.09278 9.80959ZM15.6885 9.80959C17.6253 9.80959 19.5622 9.80959 21.499 9.80959C21.7781 11.6035 22.006 13.4037 22.1826 15.21C20.0179 15.21 17.8532 15.21 15.6885 15.21C15.6885 13.4099 15.6885 11.6097 15.6885 9.80959ZM2.7002 11.3135C3.42269 11.2018 3.93538 11.4752 4.23828 12.1338C4.28386 13.7517 4.28386 15.3695 4.23828 16.9873C3.79671 17.7784 3.17008 17.9722 2.3584 17.5684C2.0931 17.3682 1.9222 17.1062 1.8457 16.7822C1.80013 15.2783 1.80013 13.7744 1.8457 12.2705C1.9774 11.8088 2.26223 11.4897 2.7002 11.3135ZM5.09278 11.3135C5.33252 11.2789 5.54899 11.3244 5.74219 11.4502C5.78776 12.1794 5.78776 12.9085 5.74219 13.6377C5.54899 13.7635 5.33252 13.809 5.09278 13.7744C5.09278 12.9541 5.09278 12.1338 5.09278 11.3135ZM8.10059 11.3135C9.85571 11.2907 11.6103 11.3135 13.3643 11.3819C13.4425 12.1306 13.4539 12.8826 13.3984 13.6377C12.525 13.7282 11.6363 13.7738 10.7324 13.7744C9.85517 13.763 8.97784 13.7517 8.10059 13.7403C8.01008 12.9314 8.01008 12.1224 8.10059 11.3135ZM17.1924 11.3135C18.1725 11.3021 19.1523 11.3135 20.1318 11.3477C20.3242 12.1481 20.4837 12.9571 20.6104 13.7744C19.4936 13.7859 18.3771 13.7744 17.2607 13.7403C17.2266 13.7061 17.1924 13.6719 17.1582 13.6377C17.1042 12.8599 17.1156 12.0851 17.1924 11.3135ZM22.9346 14.9365C25.8745 15.0825 28.814 15.2534 31.7529 15.4492C31.8782 15.4834 31.958 15.5632 31.9922 15.6885C32.0491 16.3959 32.0377 17.1024 31.958 17.8076C31.5591 17.5512 31.1489 17.3119 30.7275 17.0899C29.2692 17.0443 27.8109 17.0443 26.3525 17.0899C25.3044 17.9102 24.2562 18.7305 23.208 19.5508C20.6559 19.5964 18.1038 19.5964 15.5518 19.5508C14.6859 18.7305 13.82 17.9102 12.9541 17.0899C11.3818 17.0443 9.80957 17.0443 8.23731 17.0899C7.46013 17.8897 6.70821 18.71 5.98145 19.5508C5.68609 19.5849 5.38987 19.5963 5.09278 19.585C5.09278 18.4001 5.09278 17.2152 5.09278 16.0303C8.35126 16.0303 11.6097 16.0303 14.8682 16.0303C14.8276 16.6567 14.8846 17.2719 15.0391 17.876C15.3301 18.4635 15.7973 18.8167 16.4404 18.9356C18.0811 18.9812 19.7217 18.9812 21.3623 18.9356C22.0707 18.8422 22.5606 18.4662 22.832 17.8076C22.931 16.8556 22.9651 15.8986 22.9346 14.9365ZM15.6885 16.0303C17.8532 16.0303 20.0179 16.0303 22.1826 16.0303C22.194 16.4411 22.1826 16.8512 22.1484 17.2608C22.0534 17.6976 21.7913 17.9825 21.3623 18.1153C19.7217 18.1609 18.0811 18.1609 16.4404 18.1153C16.0872 17.99 15.848 17.7507 15.7227 17.3975C15.6885 16.9423 15.6771 16.4866 15.6885 16.0303ZM32.7783 16.0303C32.8923 16.0303 33.0062 16.0303 33.1201 16.0303C33.1201 16.486 33.1201 16.9417 33.1201 17.3975C33.0062 17.3975 32.8923 17.3975 32.7783 17.3975C32.7783 16.9417 32.7783 16.486 32.7783 16.0303ZM8.5791 17.876C9.9465 17.8646 11.3137 17.876 12.6807 17.9102C13.2296 18.4819 13.7992 19.0288 14.3897 19.5508C14.1618 19.5964 13.9339 19.5964 13.7061 19.5508C12.2805 18.4125 10.7082 18.1619 8.98926 18.7988C8.56509 18.9957 8.1777 19.2463 7.82715 19.5508C7.57648 19.5964 7.32587 19.5964 7.0752 19.5508C7.59069 19.0014 8.09197 18.4431 8.5791 17.876ZM26.626 17.876C27.925 17.8646 29.2238 17.876 30.5225 17.9102C30.9644 18.1587 31.3973 18.4207 31.8213 18.6963C31.6946 18.9507 31.5351 19.1785 31.3428 19.3799C29.3833 18.0603 27.4692 18.1173 25.6006 19.5508C25.236 19.5964 24.8714 19.5964 24.5068 19.5508C25.2428 19.0242 25.9492 18.4659 26.626 17.876ZM10.2881 19.2432C12.071 19.1601 13.3584 19.912 14.1504 21.499C14.7846 23.4244 14.2719 24.9625 12.6123 26.1133C10.6323 27.0396 8.9803 26.6408 7.65625 24.917C6.79598 23.3571 6.9099 21.876 7.99805 20.4737C8.63044 19.8116 9.39381 19.4014 10.2881 19.2432ZM28.1299 19.2432C29.7355 19.1654 30.9546 19.8035 31.7871 21.1572C32.6311 23.1247 32.2096 24.754 30.5225 26.0449C28.6758 27.0018 27.0466 26.7169 25.6348 25.1905C24.5866 23.6865 24.5866 22.1826 25.6348 20.6787C26.2948 19.8877 27.1265 19.4092 28.1299 19.2432ZM4.34082 20.4053C5.23066 20.3826 6.11933 20.4054 7.00684 20.4737C6.82013 20.7673 6.66063 21.0749 6.52832 21.3965C5.79951 21.4307 5.07035 21.4421 4.34082 21.4307C4.34082 21.0889 4.34082 20.7471 4.34082 20.4053ZM14.458 20.4737C17.91 20.394 21.3736 20.3826 24.8486 20.4395C24.6244 20.7398 24.4649 21.0702 24.3701 21.4307C21.2256 21.4307 18.0811 21.4307 14.9365 21.4307C14.8481 21.0716 14.6887 20.7526 14.458 20.4737ZM32.2998 20.4053C32.5732 20.4053 32.8467 20.4053 33.1201 20.4053C33.1201 20.7471 33.1201 21.0889 33.1201 21.4307C32.9857 21.447 32.8603 21.4243 32.7441 21.3623C32.6128 21.0315 32.4647 20.7125 32.2998 20.4053ZM10.2881 21.0205C11.4941 20.8766 12.2802 21.378 12.6465 22.5244C12.7683 23.6825 12.2784 24.4459 11.1768 24.8145C10.0333 24.9663 9.26994 24.4992 8.88672 23.4131C8.72437 22.2325 9.19147 21.4349 10.2881 21.0205ZM28.0615 21.0205C29.7348 20.9505 30.5209 21.7481 30.4199 23.4131C29.8693 24.7422 28.9236 25.141 27.583 24.6094C26.6349 23.9292 26.3956 23.0519 26.8652 21.9776C27.1568 21.5142 27.5555 21.1951 28.0615 21.0205ZM10.5615 22.4561C11.1124 22.4474 11.306 22.6981 11.1426 23.208C10.8147 23.5021 10.5412 23.4566 10.3223 23.0713C10.2767 22.9574 10.2767 22.8435 10.3223 22.7295C10.4163 22.6471 10.496 22.556 10.5615 22.4561ZM28.4033 22.4561C28.8573 22.4656 29.051 22.6934 28.9844 23.1397C28.5722 23.5407 28.2646 23.4724 28.0615 22.9346C28.0998 22.715 28.2138 22.5555 28.4033 22.4561Z" fill="#DC2626"/>
<path opacity="0.899" fill-rule="evenodd" clip-rule="evenodd" d="M7.96388 10.4932C9.80972 10.4818 11.6554 10.4932 13.501 10.5274C13.7968 10.6349 14.0132 10.8286 14.1504 11.1084C14.2164 12.1174 14.1937 13.12 14.082 14.1162C13.9204 14.3465 13.7039 14.4947 13.4326 14.5606C11.5381 14.6266 9.64676 14.6038 7.75881 14.4922C7.49815 14.347 7.32725 14.1305 7.24611 13.8428C7.20052 12.9769 7.20052 12.111 7.24611 11.2451C7.36123 10.8681 7.60049 10.6175 7.96388 10.4932ZM8.1006 11.3135C8.0101 12.1224 8.0101 12.9313 8.1006 13.7402C8.97786 13.7517 9.85518 13.763 10.7324 13.7744C11.6364 13.7737 12.525 13.7282 13.3985 13.6377C13.4539 12.8825 13.4425 12.1306 13.3643 11.3818C11.6103 11.3135 9.85573 11.2907 8.1006 11.3135Z" fill="#DC2626"/>
<path opacity="0.904" fill-rule="evenodd" clip-rule="evenodd" d="M17.0557 10.4932C18.1269 10.4818 19.1979 10.4932 20.2686 10.5274C20.6445 10.6299 20.8838 10.8692 20.9863 11.2451C21.1283 12.137 21.2877 13.0257 21.4649 13.9111C21.5645 14.2038 21.4848 14.4202 21.2256 14.5606C19.8584 14.6062 18.4912 14.6062 17.124 14.5606C16.7977 14.4718 16.5584 14.2781 16.4063 13.9795C16.3607 13.0225 16.3607 12.0654 16.4063 11.1084C16.486 10.9831 16.5657 10.8577 16.6455 10.7324C16.7978 10.6681 16.9345 10.5883 17.0557 10.4932ZM17.1924 11.3135C17.1156 12.0851 17.1042 12.8598 17.1582 13.6377C17.1924 13.6719 17.2266 13.7061 17.2608 13.7402C18.3771 13.7744 19.4936 13.7858 20.6104 13.7744C20.4837 12.9571 20.3242 12.1481 20.1319 11.3477C19.1523 11.3135 18.1725 11.3021 17.1924 11.3135Z" fill="#DC2626"/>
<path opacity="0.897" fill-rule="evenodd" clip-rule="evenodd" d="M10.2878 20.2001C12.0202 20.1141 13.0798 20.9116 13.4666 22.5927C13.5586 23.9702 12.9775 24.9387 11.7234 25.498C10.3485 25.898 9.24338 25.522 8.40796 24.3701C7.69108 22.8492 7.9987 21.5845 9.33081 20.5761C9.6493 20.4286 9.96827 20.3033 10.2878 20.2001ZM10.2878 21.0204C9.19122 21.4348 8.72413 22.2324 8.88648 23.413C9.2697 24.4991 10.0331 24.9662 11.1765 24.8144C12.2781 24.4458 12.7681 23.6824 12.6462 22.5244C12.28 21.3779 11.4938 20.8766 10.2878 21.0204ZM10.5613 22.456C10.4958 22.5559 10.4161 22.6471 10.322 22.7294C10.2764 22.8434 10.2764 22.9573 10.322 23.0712C10.541 23.4565 10.8144 23.502 11.1423 23.2079C11.3058 22.698 11.1121 22.4473 10.5613 22.456Z" fill="#DC2626"/>
<path opacity="0.897" fill-rule="evenodd" clip-rule="evenodd" d="M28.1301 20.2002C29.7841 20.1094 30.8209 20.8613 31.2405 22.4561C31.3887 24.1773 30.6253 25.2369 28.9504 25.6348C27.2395 25.7312 26.2027 24.9451 25.8401 23.2764C25.7766 21.623 26.54 20.5976 28.1301 20.2002ZM28.0618 21.0205C27.5558 21.1951 27.157 21.5142 26.8655 21.9776C26.3958 23.0519 26.6351 23.9292 27.5832 24.6094C28.9238 25.141 29.8695 24.7422 30.4202 23.4131C30.5211 21.7481 29.735 20.9505 28.0618 21.0205ZM28.4036 22.4561C28.214 22.5555 28.1 22.715 28.0618 22.9346C28.2648 23.4724 28.5724 23.5407 28.9846 23.1397C29.0512 22.6934 28.8575 22.4656 28.4036 22.4561Z" fill="#DC2626"/>
<path opacity="0.898" fill-rule="evenodd" clip-rule="evenodd" d="M10.5615 21.6357C11.4435 21.6291 11.9449 22.0621 12.0654 22.9345C11.801 24.0975 11.1174 24.4507 10.0147 23.9941C9.28548 23.2877 9.28548 22.5813 10.0147 21.875C10.1964 21.7739 10.3787 21.6941 10.5615 21.6357ZM10.5615 22.456C10.4961 22.5559 10.4163 22.6471 10.3223 22.7294C10.2767 22.8434 10.2767 22.9573 10.3223 23.0712C10.5412 23.4565 10.8147 23.502 11.1426 23.208C11.306 22.698 11.1124 22.4473 10.5615 22.456Z" fill="#DC2626"/>
<path opacity="0.9" fill-rule="evenodd" clip-rule="evenodd" d="M28.3349 21.6357C29.2173 21.6295 29.7186 22.0625 29.8388 22.9345C29.6243 24.0329 28.9862 24.4089 27.9248 24.0624C27.3693 23.696 27.1757 23.1833 27.3437 22.5244C27.5162 22.0439 27.8466 21.7476 28.3349 21.6357ZM28.4033 22.456C28.2137 22.5555 28.0998 22.7149 28.0615 22.9345C28.2645 23.4723 28.5721 23.5407 28.9843 23.1396C29.0509 22.6933 28.8572 22.4655 28.4033 22.456Z" fill="#DC2626"/>
</svg>
