<svg width="32" height="32" viewBox="0 0 32 32" fill="none" xmlns="http://www.w3.org/2000/svg">
<path opacity="0.939" fill-rule="evenodd" clip-rule="evenodd" d="M1.46875 1.09371C1.77629 1.06514 1.99504 1.19014 2.125 1.46871C2.16667 11.1354 2.16667 20.802 2.125 30.4687C1.93653 30.8357 1.65528 30.9295 1.28125 30.75C1.20616 30.6935 1.15408 30.6206 1.125 30.5312C1.08333 20.8229 1.08333 11.1145 1.125 1.40621C1.19416 1.2429 1.30875 1.13873 1.46875 1.09371Z" fill="#DC2626"/>
<path opacity="0.939" fill-rule="evenodd" clip-rule="evenodd" d="M13.2813 1.09373C13.572 1.06148 13.7908 1.16565 13.9375 1.40623C13.9792 11.1145 13.9792 20.8229 13.9375 30.5312C13.7445 30.8315 13.484 30.9045 13.1563 30.75C13.0321 30.6675 12.9591 30.553 12.9375 30.4062C12.8958 20.7812 12.8958 11.1562 12.9375 1.53123C12.9961 1.33764 13.1108 1.1918 13.2813 1.09373Z" fill="#DC2626"/>
<path opacity="0.939" fill-rule="evenodd" clip-rule="evenodd" d="M18.3438 1.09371C18.6513 1.06514 18.8701 1.19014 19 1.46871C19.0417 11.1145 19.0417 20.7604 19 30.4062C18.8456 30.8217 18.5644 30.9363 18.1563 30.75C18.0812 30.6935 18.0291 30.6206 18 30.5312C17.9583 20.8229 17.9583 11.1145 18 1.40621C18.0692 1.2429 18.1838 1.13873 18.3438 1.09371Z" fill="#DC2626"/>
<path opacity="0.939" fill-rule="evenodd" clip-rule="evenodd" d="M30.1563 1.09373C30.447 1.06148 30.6658 1.16565 30.8125 1.40623C30.8542 11.1145 30.8542 20.8229 30.8125 30.5312C30.4536 30.9638 30.1203 30.943 29.8125 30.4687C29.7708 20.802 29.7708 11.1354 29.8125 1.46873C29.8975 1.31107 30.0121 1.18607 30.1563 1.09373Z" fill="#DC2626"/>
<path opacity="0.927" fill-rule="evenodd" clip-rule="evenodd" d="M7.28127 3.15623C7.69277 3.05425 7.95314 3.20009 8.06252 3.59373C8.1042 4.6354 8.1042 5.67706 8.06252 6.71873C7.89214 7.17836 7.59002 7.29292 7.15627 7.06248C7.11714 7.01561 7.08589 6.96348 7.06252 6.90623C7.02083 5.73956 7.02083 4.5729 7.06252 3.40623C7.10564 3.29059 7.17852 3.20726 7.28127 3.15623Z" fill="#DC2626"/>
<path opacity="0.927" fill-rule="evenodd" clip-rule="evenodd" d="M24.1563 3.15628C24.3242 3.14603 24.4909 3.15644 24.6563 3.18753C24.7708 3.21878 24.8438 3.2917 24.875 3.40628C24.9167 4.57295 24.9167 5.73961 24.875 6.90628C24.6424 7.21991 24.3611 7.27197 24.0313 7.06253C23.9552 6.95953 23.9031 6.84497 23.875 6.71878C23.8333 5.67711 23.8333 4.63545 23.875 3.59378C23.9081 3.40097 24.0019 3.25514 24.1563 3.15628Z" fill="#DC2626"/>
<path opacity="0.927" fill-rule="evenodd" clip-rule="evenodd" d="M7.28127 10.1562C7.69277 10.0542 7.95314 10.2001 8.06252 10.5937C8.1042 11.6354 8.1042 12.677 8.06252 13.7187C7.89214 14.1784 7.59002 14.2929 7.15627 14.0625C7.11714 14.0156 7.08589 13.9635 7.06252 13.9062C7.02083 12.7395 7.02083 11.5729 7.06252 10.4062C7.10564 10.2906 7.17852 10.2072 7.28127 10.1562Z" fill="#DC2626"/>
<path opacity="0.927" fill-rule="evenodd" clip-rule="evenodd" d="M24.1563 10.1563C24.3242 10.146 24.4909 10.1565 24.6563 10.1875C24.7708 10.2188 24.8438 10.2917 24.875 10.4063C24.9167 11.573 24.9167 12.7396 24.875 13.9063C24.6424 14.2199 24.3611 14.272 24.0313 14.0625C23.9552 13.9595 23.9031 13.845 23.875 13.7188C23.8333 12.6771 23.8333 11.6355 23.875 10.5938C23.9081 10.401 24.0019 10.2552 24.1563 10.1563Z" fill="#DC2626"/>
<path opacity="0.927" fill-rule="evenodd" clip-rule="evenodd" d="M7.28127 17.1562C7.69277 17.0542 7.95314 17.2001 8.06252 17.5937C8.1042 18.6354 8.1042 19.677 8.06252 20.7187C7.89214 21.1784 7.59002 21.2929 7.15627 21.0625C7.11714 21.0156 7.08589 20.9635 7.06252 20.9062C7.02083 19.7395 7.02083 18.5729 7.06252 17.4062C7.10564 17.2906 7.17852 17.2072 7.28127 17.1562Z" fill="#DC2626"/>
<path opacity="0.927" fill-rule="evenodd" clip-rule="evenodd" d="M24.1563 17.1563C24.3242 17.146 24.4909 17.1565 24.6563 17.1875C24.7708 17.2188 24.8438 17.2917 24.875 17.4063C24.9167 18.573 24.9167 19.7396 24.875 20.9063C24.6424 21.2199 24.3611 21.272 24.0313 21.0625C23.9552 20.9595 23.9031 20.845 23.875 20.7188C23.8333 19.6771 23.8333 18.6355 23.875 17.5938C23.9081 17.401 24.0019 17.2552 24.1563 17.1563Z" fill="#DC2626"/>
<path opacity="0.927" fill-rule="evenodd" clip-rule="evenodd" d="M7.28127 24.1562C7.69277 24.0542 7.95314 24.2001 8.06252 24.5937C8.1042 25.6354 8.1042 26.677 8.06252 27.7187C7.89214 28.1784 7.59002 28.2929 7.15627 28.0625C7.11714 28.0156 7.08589 27.9635 7.06252 27.9062C7.02083 26.7395 7.02083 25.5729 7.06252 24.4062C7.10564 24.2906 7.17852 24.2072 7.28127 24.1562Z" fill="#DC2626"/>
<path opacity="0.927" fill-rule="evenodd" clip-rule="evenodd" d="M24.1563 24.1563C24.3242 24.146 24.4909 24.1565 24.6563 24.1875C24.7708 24.2188 24.8438 24.2917 24.875 24.4063C24.9167 25.573 24.9167 26.7396 24.875 27.9063C24.6424 28.2199 24.3611 28.272 24.0313 28.0625C23.9552 27.9595 23.9031 27.845 23.875 27.7188C23.8333 26.6771 23.8333 25.6355 23.875 24.5938C23.9081 24.401 24.0019 24.2552 24.1563 24.1563Z" fill="#DC2626"/>
</svg>
