<svg width="32" height="32" viewBox="0 0 32 32" fill="none" xmlns="http://www.w3.org/2000/svg">
<g clip-path="url(#clip0_1636_1663)">
<path opacity="0.939" fill-rule="evenodd" clip-rule="evenodd" d="M5.53125 -0.03125C5.73958 -0.03125 5.94792 -0.03125 6.15625 -0.03125C7.22863 0.738544 8.19738 1.63437 9.0625 2.65625C10.0792 3.95505 10.9855 5.33005 11.7812 6.78125C12.0622 6.52838 12.3747 6.47625 12.7188 6.625C12.9826 7.05963 13.2535 7.48669 13.5312 7.90625C13.6195 7.82463 13.7237 7.7725 13.8438 7.75C14.7185 7.71875 15.5935 7.70831 16.4688 7.71875C16.4583 6.71856 16.4688 5.71853 16.5 4.71875C16.7497 3.84407 17.3018 3.25032 18.1562 2.9375C18.82 2.86846 19.4866 2.83721 20.1562 2.84375C20.7188 2.85417 21.2812 2.86458 21.8438 2.875C22.139 3.02721 22.2327 3.26679 22.125 3.59375C22.0491 3.69055 21.9554 3.76347 21.8438 3.8125C20.7604 3.83333 19.6771 3.85417 18.5938 3.875C18.0477 4.02522 17.6831 4.36897 17.5 4.90625C17.4688 5.84352 17.4583 6.781 17.4688 7.71875C17.7812 7.71875 18.0938 7.71875 18.4062 7.71875C18.3959 7.07256 18.4062 6.42675 18.4375 5.78125C18.5699 5.33857 18.8511 5.03648 19.2812 4.875C21.5283 4.77246 23.7783 4.75163 26.0312 4.8125C26.5314 4.93768 26.8751 5.23976 27.0625 5.71875C27.1427 6.94469 27.1844 8.17387 27.1875 9.40625C27.4678 9.6505 27.7595 9.87963 28.0625 10.0938C28.1042 8.40625 28.1042 6.71875 28.0625 5.03125C27.9341 4.42362 27.5695 4.03821 26.9688 3.875C25.8229 3.85417 24.6771 3.83333 23.5312 3.8125C23.2587 3.67339 23.1649 3.45464 23.25 3.15625C23.3021 3.02083 23.3958 2.92708 23.5312 2.875C24.8048 2.81627 26.0756 2.83711 27.3438 2.9375C28.1875 3.19792 28.7396 3.75 29 4.59375C29.1036 12.7583 29.1244 20.9249 29.0625 29.0938C28.7896 30.6268 27.9042 31.5851 26.4062 31.9688C21.3854 31.9688 16.3646 31.9688 11.3438 31.9688C9.97431 31.6306 9.10975 30.7764 8.75 29.4062C8.6485 26.9706 8.62769 24.5331 8.6875 22.0938C8.89213 21.7664 9.17338 21.6935 9.53125 21.875C9.57037 21.9219 9.60162 21.974 9.625 22.0312C9.62687 24.4295 9.66856 26.8253 9.75 29.2188C10.0859 30.3093 10.8254 30.9031 11.9688 31C16.5729 31.0417 21.1771 31.0417 25.7812 31C27.0537 30.8941 27.8141 30.217 28.0625 28.9688C28.1042 23.0938 28.1042 17.2188 28.0625 11.3438C26.9062 10.4792 25.75 9.61456 24.5938 8.75C21.0938 8.70831 17.5938 8.70831 14.0938 8.75C12.6198 9.62756 11.1511 10.513 9.6875 11.4062C9.66669 14.4062 9.64581 17.4062 9.625 20.4062C9.43213 20.7345 9.17169 20.797 8.84375 20.5938C8.776 20.5209 8.72394 20.4376 8.6875 20.3438C8.64581 17.2396 8.64581 14.1354 8.6875 11.0312C8.8005 10.7516 8.99837 10.5537 9.28125 10.4375C8.97988 9.95981 8.72988 9.45981 8.53125 8.9375C8.54169 8.86456 8.55206 8.79169 8.5625 8.71875C8.75712 8.544 8.95506 8.37737 9.15625 8.21875C8.43456 6.69656 7.52831 5.30074 6.4375 4.03125C6.02363 3.60619 5.58613 3.21036 5.125 2.84375C4.90056 2.56099 4.78597 2.23808 4.78125 1.875C4.81367 1.29301 4.94909 0.740931 5.1875 0.21875C5.30076 0.126434 5.41534 0.0431002 5.53125 -0.03125ZM5.90625 1.03125C8.064 2.75169 9.689 4.85586 10.7812 7.34375C10.5364 7.48175 10.2969 7.62756 10.0625 7.78125C9.30656 6.16367 8.34819 4.68451 7.1875 3.34375C6.78737 2.9017 6.34987 2.50587 5.875 2.15625C5.83742 2.05395 5.80617 1.94979 5.78125 1.84375C5.84331 1.57557 5.88498 1.30474 5.90625 1.03125ZM19.6562 5.78125C21.7189 5.77084 23.7814 5.78125 25.8438 5.8125C25.9792 5.86458 26.0729 5.95833 26.125 6.09375C26.1667 6.94794 26.1667 7.80206 26.125 8.65625C25.7364 8.33006 25.3301 8.028 24.9062 7.75C23.0731 7.71875 21.2397 7.70831 19.4062 7.71875C19.3959 7.15588 19.4062 6.59338 19.4375 6.03125C19.5064 5.94069 19.5793 5.85736 19.6562 5.78125ZM12.0938 7.71875C12.156 7.71338 12.2081 7.73425 12.25 7.78125C12.3762 8.01194 12.4804 8.24113 12.5625 8.46875C11.7812 8.96362 10.9896 9.44281 10.1875 9.90625C10.0156 9.66675 9.85938 9.41675 9.71875 9.15625C10.5144 8.6755 11.3061 8.19631 12.0938 7.71875ZM15.7812 10.6562C17.8439 10.6458 19.9064 10.6562 21.9688 10.6875C22.3996 11.0025 22.3787 11.2942 21.9062 11.5625C19.8854 11.6042 17.8646 11.6042 15.8438 11.5625C15.5194 11.3804 15.4465 11.12 15.625 10.7812C15.6872 10.7459 15.7393 10.7042 15.7812 10.6562Z" fill="#DC2626"/>
<path opacity="0.924" fill-rule="evenodd" clip-rule="evenodd" d="M4.59375 5.28125C4.74105 5.27105 4.88689 5.28147 5.03125 5.3125C5.8997 6.29713 6.483 7.43257 6.78125 8.71875C6.65206 9.9 5.99581 10.5459 4.8125 10.6563C3.61347 10.5406 2.95722 9.88432 2.84375 8.6875C3.15775 7.403 3.74108 6.26763 4.59375 5.28125ZM4.78125 6.71875C5.20294 7.32244 5.53627 7.97869 5.78125 8.6875C5.55616 9.5605 5.03533 9.8105 4.21875 9.4375C3.78209 9.01469 3.73001 8.54594 4.0625 8.03125C4.29131 7.58475 4.53089 7.14725 4.78125 6.71875Z" fill="#DC2626"/>
<path opacity="0.934" fill-rule="evenodd" clip-rule="evenodd" d="M15.5939 9.65626C17.8024 9.64582 20.0107 9.65626 22.2189 9.68751C22.9705 9.98163 23.3143 10.5337 23.2502 11.3438C23.0923 12.0017 22.686 12.4079 22.0314 12.5625C19.9273 12.6042 17.8231 12.6042 15.7189 12.5625C14.6683 12.2216 14.3037 11.5237 14.6252 10.4688C14.8466 10.0723 15.1695 9.80151 15.5939 9.65626ZM15.7814 10.6563C15.7394 10.7042 15.6874 10.7459 15.6252 10.7813C15.4467 11.12 15.5196 11.3804 15.8439 11.5625C17.8648 11.6042 19.8856 11.6042 21.9064 11.5625C22.3789 11.2942 22.3998 11.0025 21.9689 10.6875C19.9066 10.6563 17.8441 10.6458 15.7814 10.6563Z" fill="#DC2626"/>
<path opacity="0.933" fill-rule="evenodd" clip-rule="evenodd" d="M13.5938 13.5313C17.1146 13.5208 20.6355 13.5313 24.1563 13.5625C25.202 13.7957 25.8582 14.4311 26.125 15.4688C26.1667 17.1354 26.1667 18.8021 26.125 20.4688C25.7586 20.8246 25.4461 20.7829 25.1875 20.3438C25.1667 18.7604 25.1458 17.1771 25.125 15.5938C24.942 15.0565 24.5773 14.7128 24.0313 14.5625C20.5938 14.5208 17.1563 14.5208 13.7188 14.5625C13.1458 14.7188 12.7813 15.0833 12.625 15.6563C12.5833 19.4271 12.5833 23.1979 12.625 26.9688C12.7813 27.5417 13.1458 27.9063 13.7188 28.0625C17.2224 28.1243 20.7224 28.1034 24.2188 28C24.6724 27.8173 24.9745 27.4943 25.125 27.0313C25.1458 25.3854 25.1667 23.7396 25.1875 22.0938C25.3921 21.7664 25.6734 21.6935 26.0313 21.875C26.0704 21.9219 26.1016 21.974 26.125 22.0313C26.1667 23.7396 26.1667 25.4479 26.125 27.1563C25.8582 28.1939 25.202 28.8293 24.1563 29.0625C20.6355 29.1042 17.1146 29.1042 13.5938 29.0625C12.5208 28.8229 11.8646 28.1667 11.625 27.0938C11.5833 23.2396 11.5833 19.3854 11.625 15.5313C11.8759 14.4575 12.5321 13.7908 13.5938 13.5313Z" fill="#DC2626"/>
<path opacity="0.919" fill-rule="evenodd" clip-rule="evenodd" d="M13.781 15.5313C13.949 15.521 14.1157 15.5315 14.281 15.5625C15.8123 17.2188 17.3435 18.875 18.8748 20.5313C20.406 18.875 21.9373 17.2188 23.4685 15.5625C24.0943 15.48 24.313 15.7404 24.1248 16.3438C22.5913 17.9813 21.0809 19.6376 19.5935 21.3125C21.0809 22.9875 22.5913 24.6437 24.1248 26.2813C24.313 26.8847 24.0943 27.145 23.4685 27.0625C21.9373 25.4063 20.406 23.75 18.8748 22.0938C17.3435 23.75 15.8123 25.4063 14.281 27.0625C13.5972 27.1217 13.3993 26.8405 13.6873 26.2188C15.1977 24.5833 16.7081 22.948 18.2185 21.3125C16.7081 19.6771 15.1977 18.0417 13.6873 16.4063C13.4622 16.0846 13.4935 15.7929 13.781 15.5313Z" fill="#DC2626"/>
</g>
<defs>
<clipPath id="clip0_1636_1663">
<rect width="32" height="32" fill="white"/>
</clipPath>
</defs>
</svg>
