<svg width="32" height="32" viewBox="0 0 32 32" fill="none" xmlns="http://www.w3.org/2000/svg">
<g clip-path="url(#clip0_1636_1753)">
<path opacity="0.965" fill-rule="evenodd" clip-rule="evenodd" d="M31.9688 7.40624C31.9688 13.9062 31.9688 20.4062 31.9688 26.9062C31.6551 28.1466 30.8635 28.8862 29.5938 29.125C25.8021 29.1667 22.0104 29.1667 18.2188 29.125C17.9499 29.0041 17.8249 28.7957 17.8438 28.5C17.8198 28.1729 17.9656 27.9646 18.2812 27.875C22.0104 27.8542 25.7396 27.8333 29.4688 27.8125C30.1899 27.5912 30.5962 27.1016 30.6875 26.3437C30.7188 21.2396 30.7292 16.1354 30.7188 11.0312C20.8854 11.0312 11.0521 11.0312 1.21875 11.0312C1.20833 16.1354 1.21875 21.2396 1.25 26.3437C1.34134 27.1016 1.74759 27.5912 2.46875 27.8125C6.19792 27.8333 9.92706 27.8542 13.6562 27.875C13.9719 27.9646 14.1177 28.1729 14.0938 28.5C14.1126 28.7957 13.9876 29.0041 13.7188 29.125C9.92706 29.1667 6.13542 29.1667 2.34375 29.125C1.10169 28.893 0.310022 28.1742 -0.03125 26.9687C-0.03125 20.4479 -0.03125 13.9271 -0.03125 7.40624C0.303065 6.22843 1.0739 5.50968 2.28125 5.24999C3.32271 5.21874 4.36438 5.20833 5.40625 5.21874C5.39584 4.59339 5.40626 3.96839 5.4375 3.34374C5.46977 3.18539 5.54269 3.04998 5.65625 2.93749C6.4005 2.86577 7.1505 2.83452 7.90625 2.84374C8.61456 2.85416 9.32294 2.86457 10.0312 2.87499C10.1486 2.97142 10.2424 3.086 10.3125 3.21874C10.3438 3.88508 10.3542 4.55174 10.3438 5.21874C11.4062 5.21874 12.4688 5.21874 13.5312 5.21874C13.5208 4.53093 13.5312 3.84343 13.5625 3.15624C13.6354 3.04166 13.7292 2.94791 13.8438 2.87499C15.2604 2.83332 16.6771 2.83332 18.0938 2.87499C18.2083 2.94791 18.3021 3.04166 18.375 3.15624C18.4062 3.84343 18.4167 4.53093 18.4062 5.21874C19.4688 5.21874 20.5312 5.21874 21.5938 5.21874C21.5833 4.55174 21.5938 3.88508 21.625 3.21874C21.6951 3.086 21.7889 2.97142 21.9062 2.87499C22.6146 2.86457 23.3229 2.85416 24.0312 2.84374C24.787 2.83452 25.537 2.86577 26.2812 2.93749C26.3948 3.04998 26.4678 3.18539 26.5 3.34374C26.5312 3.96839 26.5416 4.59339 26.5312 5.21874C27.5731 5.20833 28.6148 5.21874 29.6562 5.24999C30.8636 5.50968 31.6344 6.22843 31.9688 7.40624ZM6.71875 4.09374C7.48956 4.09374 8.26044 4.09374 9.03125 4.09374C9.03125 5.26041 9.03125 6.42705 9.03125 7.59374C8.26044 7.59374 7.48956 7.59374 6.71875 7.59374C6.71875 6.42705 6.71875 5.26041 6.71875 4.09374ZM14.8438 4.09374C15.5938 4.09374 16.3438 4.09374 17.0938 4.09374C17.0938 5.26041 17.0938 6.42705 17.0938 7.59374C16.3438 7.59374 15.5938 7.59374 14.8438 7.59374C14.8438 6.42705 14.8438 5.26041 14.8438 4.09374ZM22.9062 4.09374C23.6771 4.09374 24.4479 4.09374 25.2188 4.09374C25.2188 5.26041 25.2188 6.42705 25.2188 7.59374C24.4479 7.59374 23.6771 7.59374 22.9062 7.59374C22.9062 6.42705 22.9062 5.26041 22.9062 4.09374ZM2.46875 6.53124C3.44792 6.53124 4.42708 6.53124 5.40625 6.53124C5.38087 7.22274 5.41212 7.91024 5.5 8.59374C5.57292 8.66668 5.64583 8.73955 5.71875 8.81249C6.44212 8.88418 7.17131 8.91543 7.90625 8.90624C8.64119 8.91543 9.37037 8.88418 10.0938 8.81249C10.1906 8.73661 10.2634 8.64286 10.3125 8.53124C10.3438 7.86493 10.3542 7.19824 10.3438 6.53124C11.4062 6.53124 12.4688 6.53124 13.5312 6.53124C13.5208 7.19824 13.5312 7.86493 13.5625 8.53124C13.6116 8.64286 13.6844 8.73661 13.7812 8.81249C14.5046 8.88418 15.2338 8.91543 15.9688 8.90624C16.7037 8.91543 17.4329 8.88418 18.1562 8.81249C18.2531 8.73661 18.3259 8.64286 18.375 8.53124C18.4062 7.86493 18.4167 7.19824 18.4062 6.53124C19.4688 6.53124 20.5312 6.53124 21.5938 6.53124C21.5833 7.19824 21.5938 7.86493 21.625 8.53124C21.6741 8.64286 21.7469 8.73661 21.8438 8.81249C22.5671 8.88418 23.2963 8.91543 24.0312 8.90624C24.7662 8.91543 25.4954 8.88418 26.2188 8.81249C26.3918 8.70236 26.4855 8.54611 26.5 8.34374C26.5312 7.73993 26.5416 7.13574 26.5312 6.53124C27.5106 6.5208 28.4898 6.53124 29.4688 6.56249C30.0764 6.69093 30.4618 7.05549 30.625 7.65624C30.7094 8.34068 30.7406 9.02818 30.7188 9.71874C20.8854 9.71874 11.0521 9.71874 1.21875 9.71874C1.20835 9.15586 1.21876 8.59336 1.25 8.03124C1.31857 7.24443 1.72482 6.74443 2.46875 6.53124Z" fill="#DC2626"/>
<path opacity="0.939" fill-rule="evenodd" clip-rule="evenodd" d="M6.84377 12.7813C7.24364 12.6908 7.5457 12.8158 7.75002 13.1563C7.7917 14.5105 7.7917 15.8646 7.75002 17.2188C7.62908 17.4877 7.42077 17.6127 7.12502 17.5938C6.79795 17.6177 6.58964 17.4719 6.50002 17.1563C6.45833 15.8438 6.45833 14.5313 6.50002 13.2188C6.56045 13.0237 6.67502 12.8779 6.84377 12.7813Z" fill="#DC2626"/>
<path opacity="0.942" fill-rule="evenodd" clip-rule="evenodd" d="M12.7188 12.7812C13.1247 12.6829 13.4268 12.8079 13.625 13.1562C13.6667 14.5104 13.6667 15.8646 13.625 17.2187C13.5041 17.4876 13.2958 17.6126 13 17.5937C12.6355 17.5836 12.4272 17.3961 12.375 17.0312C12.3333 15.7812 12.3333 14.5312 12.375 13.2812C12.4141 13.0557 12.5286 12.889 12.7188 12.7812Z" fill="#DC2626"/>
<path opacity="0.942" fill-rule="evenodd" clip-rule="evenodd" d="M18.5938 12.7813C18.9053 12.7357 19.1866 12.7982 19.4375 12.9688C19.4983 13.087 19.54 13.212 19.5625 13.3438C19.6042 14.5729 19.6042 15.8021 19.5625 17.0313C19.4135 17.5893 19.0697 17.7455 18.5313 17.5C18.4345 17.4241 18.3616 17.3304 18.3125 17.2188C18.2708 15.8646 18.2708 14.5104 18.3125 13.1563C18.3958 13.0213 18.4895 12.8963 18.5938 12.7813Z" fill="#DC2626"/>
<path opacity="0.939" fill-rule="evenodd" clip-rule="evenodd" d="M24.5313 12.7812C24.9653 12.6734 25.2674 12.8192 25.4375 13.2187C25.4792 14.5312 25.4792 15.8437 25.4375 17.1562C25.3479 17.4718 25.1396 17.6176 24.8125 17.5937C24.5168 17.6126 24.3085 17.4876 24.1875 17.2187C24.1458 15.8645 24.1458 14.5104 24.1875 13.1562C24.2725 12.9985 24.3871 12.8735 24.5313 12.7812Z" fill="#DC2626"/>
<path opacity="0.95" fill-rule="evenodd" clip-rule="evenodd" d="M3.46872 18.7813C11.8021 18.7708 20.1354 18.7813 28.4687 18.8125C28.8626 19.0732 28.946 19.4169 28.7187 19.8438C28.6168 19.9561 28.4918 20.029 28.3437 20.0625C20.0937 20.1042 11.8437 20.1042 3.59372 20.0625C3.10535 19.8661 2.96993 19.5223 3.18747 19.0313C3.27477 18.9331 3.36852 18.8498 3.46872 18.7813Z" fill="#DC2626"/>
<path opacity="0.938" fill-rule="evenodd" clip-rule="evenodd" d="M6.96877 21.2188C7.33295 21.1836 7.59339 21.3294 7.75002 21.6563C7.7917 22.9896 7.7917 24.3229 7.75002 25.6563C7.51595 26.0996 7.1722 26.2038 6.71877 25.9688C6.6337 25.8733 6.56077 25.7691 6.50002 25.6563C6.45833 24.3438 6.45833 23.0313 6.50002 21.7188C6.58458 21.4781 6.74083 21.3114 6.96877 21.2188Z" fill="#DC2626"/>
<path opacity="0.936" fill-rule="evenodd" clip-rule="evenodd" d="M12.8438 21.2187C13.1843 21.1859 13.4447 21.3109 13.625 21.5937C13.6667 22.9687 13.6667 24.3437 13.625 25.7187C13.3908 26.0964 13.0678 26.1901 12.6563 26C12.4833 25.8899 12.3895 25.7336 12.375 25.5312C12.3333 24.2812 12.3333 23.0312 12.375 21.7812C12.4327 21.5054 12.589 21.3179 12.8438 21.2187Z" fill="#DC2626"/>
<path opacity="0.936" fill-rule="evenodd" clip-rule="evenodd" d="M18.7188 21.2187C19.156 21.1816 19.4373 21.3691 19.5625 21.7812C19.6042 23.0312 19.6042 24.2812 19.5625 25.5312C19.3985 26.0662 19.0547 26.2225 18.5313 26C18.4345 25.9241 18.3616 25.8303 18.3125 25.7187C18.2708 24.3437 18.2708 22.9687 18.3125 21.5937C18.4059 21.4178 18.5413 21.2928 18.7188 21.2187Z" fill="#DC2626"/>
<path opacity="0.938" fill-rule="evenodd" clip-rule="evenodd" d="M24.6563 21.2187C25.0562 21.1742 25.3166 21.3409 25.4375 21.7187C25.4792 23.0312 25.4792 24.3437 25.4375 25.6562C25.1737 26.117 24.8091 26.2107 24.3438 25.9375C24.2838 25.8488 24.2317 25.755 24.1875 25.6562C24.1458 24.3229 24.1458 22.9895 24.1875 21.6562C24.298 21.4517 24.4542 21.3059 24.6563 21.2187Z" fill="#DC2626"/>
<path opacity="0.897" fill-rule="evenodd" clip-rule="evenodd" d="M15.7812 27.8437C16.4395 27.8249 16.6999 28.1374 16.5625 28.7812C16.38 29.1265 16.0988 29.2411 15.7187 29.1249C15.3681 28.9201 15.2536 28.6181 15.375 28.2187C15.4683 28.0428 15.6037 27.9178 15.7812 27.8437Z" fill="#DC2626"/>
</g>
<defs>
<clipPath id="clip0_1636_1753">
<rect width="32" height="32" fill="white"/>
</clipPath>
</defs>
</svg>
