<svg width="32" height="32" viewBox="0 0 32 32" fill="none" xmlns="http://www.w3.org/2000/svg">
<g clip-path="url(#clip0_1636_1710)">
<path opacity="0.959" fill-rule="evenodd" clip-rule="evenodd" d="M10.7814 -0.03125C14.2397 -0.03125 17.6981 -0.03125 21.1564 -0.03125C23.0501 0.538983 23.9563 1.80982 23.8751 3.78125C23.5835 4.03125 23.2918 4.03125 23.0001 3.78125C22.9381 2.83421 22.5526 2.05296 21.8439 1.4375C21.4306 1.15696 20.9723 1.01113 20.4689 1C17.4689 0.958331 14.4689 0.958331 11.4689 1C10.332 1.07448 9.57164 1.64739 9.18764 2.71875C9.09845 3.07332 9.01514 3.42749 8.93764 3.78125C8.73408 3.96428 8.49445 4.01636 8.21889 3.9375C7.98395 3.70354 7.91102 3.42229 8.00014 3.09375C8.26033 1.44862 9.18745 0.406959 10.7814 -0.03125Z" fill="#DC2626"/>
<path opacity="0.98" fill-rule="evenodd" clip-rule="evenodd" d="M9.03125 4.46878C9.72363 4.44183 10.4111 4.47308 11.0938 4.56253C11.5093 4.76966 11.7906 5.09258 11.9375 5.53128C11.9792 7.15628 11.9792 8.78128 11.9375 10.4063C11.5784 11.2892 10.9222 11.6434 9.96875 11.4688C9.64088 11.468 9.31794 11.4472 9 11.4063C8.95831 14.448 8.95831 17.4896 9 20.5313C9.63063 20.4593 10.266 20.4488 10.9063 20.5C11.7893 20.8593 12.1434 21.5155 11.9688 22.4688C12.49 22.4792 13.0108 22.4688 13.5313 22.4375C13.7309 22.0608 14.0225 21.7796 14.4063 21.5938C14.4688 19.5525 14.4896 17.5108 14.4688 15.4688C14.1151 15.4902 13.9485 15.3235 13.9688 14.9688C13.9485 14.614 14.1151 14.4474 14.4688 14.4688C14.4583 13.5519 14.4688 12.6352 14.5 11.7188C14.5956 11.5303 14.7518 11.447 14.9688 11.4688C15.1857 11.447 15.3419 11.5303 15.4375 11.7188C15.4688 12.6352 15.4792 13.5519 15.4688 14.4688C15.8021 14.4688 16.1354 14.4688 16.4688 14.4688C16.4688 13.3021 16.4688 12.1355 16.4688 10.9688C15.8226 10.9792 15.1768 10.9688 14.5313 10.9375C14.0208 10.7605 13.6771 10.4167 13.5 9.90628C13.4399 8.71472 13.4608 7.52722 13.5625 6.34378C13.7696 5.92824 14.0926 5.64699 14.5313 5.50003C15.4896 5.45836 16.4479 5.45836 17.4063 5.50003C17.9167 5.67711 18.2604 6.02086 18.4375 6.53128C18.4792 7.65628 18.4792 8.78128 18.4375 9.90628C18.2783 10.3677 17.9763 10.701 17.5313 10.9063C17.4688 12.093 17.4479 13.2805 17.4688 14.4688C17.8224 14.4474 17.989 14.614 17.9688 14.9688C17.989 15.3235 17.8224 15.4902 17.4688 15.4688C17.4479 17.5108 17.4688 19.5525 17.5313 21.5938C17.915 21.7796 18.2066 22.0608 18.4063 22.4375C18.9267 22.4688 19.4475 22.4792 19.9688 22.4688C19.7941 21.5155 20.1483 20.8593 21.0313 20.5C21.6715 20.4488 22.3069 20.4593 22.9375 20.5313C22.9792 17.4896 22.9792 14.448 22.9375 11.4063C22.3069 11.4783 21.6715 11.4887 21.0313 11.4375C20.5926 11.2906 20.2696 11.0093 20.0625 10.5938C19.96 8.91015 19.9391 7.22265 20 5.53128C20.3591 4.64834 21.0153 4.29417 21.9688 4.46878C22.9222 4.29417 23.5784 4.64834 23.9375 5.53128C23.9583 7.55209 23.9792 9.57297 24 11.5938C24.5613 11.8088 25.1134 12.0483 25.6563 12.3125C26.2998 12.8393 26.5706 13.5164 26.4688 14.3438C26.4583 14.6355 26.4479 14.9271 26.4375 15.2188C26.4063 15.3333 26.3333 15.4063 26.2188 15.4375C25.4646 15.42 24.725 15.3055 24 15.0938C23.9792 18.8646 23.9583 22.6355 23.9375 26.4063C23.7604 26.9167 23.4167 27.2605 22.9063 27.4375C22.2142 27.4957 21.5267 27.4748 20.8438 27.375C20.0904 26.961 19.7987 26.3255 19.9688 25.4688C19.4463 25.4481 18.9254 25.4689 18.4063 25.5313C18.2309 25.9045 17.9601 26.1858 17.5938 26.375C17.0566 26.4452 16.5149 26.4765 15.9688 26.4688C15.4896 26.4583 15.0104 26.448 14.5313 26.4375C14.0699 26.2783 13.7366 25.9763 13.5313 25.5313C13.0121 25.4689 12.4913 25.4481 11.9688 25.4688C12.1388 26.3255 11.8471 26.961 11.0938 27.375C10.4108 27.4748 9.72331 27.4957 9.03125 27.4375C8.52081 27.2605 8.17706 26.9167 8 26.4063C7.97919 22.6355 7.95831 18.8646 7.9375 15.0938C7.2125 15.3055 6.47288 15.42 5.71875 15.4375C5.60417 15.4063 5.53125 15.3333 5.5 15.2188C5.45833 14.6355 5.45833 14.0521 5.5 13.4688C5.6591 13.0153 5.91951 12.6298 6.28125 12.3125C6.82406 12.0483 7.37619 11.8088 7.9375 11.5938C7.95831 9.57297 7.97919 7.55209 8 5.53128C8.18869 5.01975 8.53244 4.66559 9.03125 4.46878ZM9.46875 5.46878C9.87031 5.44568 10.2661 5.47693 10.6563 5.56253C10.8184 5.64622 10.9121 5.78163 10.9375 5.96878C10.9792 7.30209 10.9792 8.63547 10.9375 9.96878C10.9063 10.25 10.75 10.4063 10.4688 10.4375C10.0178 10.5071 9.58031 10.4654 9.15625 10.3125C9.08019 10.2095 9.02813 10.095 9 9.96878C8.95831 8.63547 8.95831 7.30209 9 5.96878C9.0425 5.68687 9.19875 5.5202 9.46875 5.46878ZM21.4688 5.46878C21.8703 5.44568 22.2661 5.47693 22.6563 5.56253C22.8184 5.64622 22.9121 5.78163 22.9375 5.96878C22.9792 7.30209 22.9792 8.63547 22.9375 9.96878C22.9063 10.25 22.75 10.4063 22.4688 10.4375C22.0178 10.5071 21.5803 10.4654 21.1563 10.3125C21.0802 10.2095 21.0281 10.095 21 9.96878C20.9583 8.63547 20.9583 7.30209 21 5.96878C21.0425 5.68687 21.1988 5.5202 21.4688 5.46878ZM14.9688 6.46878C15.6358 6.45834 16.3024 6.46878 16.9688 6.50003C17.25 6.53128 17.4063 6.68753 17.4375 6.96878C17.4792 7.80209 17.4792 8.63547 17.4375 9.46878C17.4063 9.75003 17.25 9.90628 16.9688 9.93753C16.3021 9.97922 15.6354 9.97922 14.9688 9.93753C14.6875 9.90628 14.5313 9.75003 14.5 9.46878C14.4583 8.63547 14.4583 7.80209 14.5 6.96878C14.5425 6.68684 14.6988 6.52022 14.9688 6.46878ZM7.78125 12.7813C7.84375 12.7813 7.90625 12.7813 7.96875 12.7813C7.96875 13.198 7.96875 13.6146 7.96875 14.0313C7.47344 14.1157 6.98388 14.2199 6.5 14.3438C6.45838 13.9478 6.56256 13.5937 6.8125 13.2813C7.13031 13.0961 7.45325 12.9295 7.78125 12.7813ZM23.9688 12.7813C24.3651 12.8857 24.7401 13.042 25.0938 13.25C25.3679 13.5653 25.4824 13.93 25.4375 14.3438C24.9536 14.2199 24.4641 14.1157 23.9688 14.0313C23.9688 13.6146 23.9688 13.198 23.9688 12.7813ZM15.4688 15.4688C15.8021 15.4688 16.1354 15.4688 16.4688 15.4688C16.4688 17.4896 16.4688 19.5105 16.4688 21.5313C16.1354 21.5313 15.8021 21.5313 15.4688 21.5313C15.4688 19.5105 15.4688 17.4896 15.4688 15.4688ZM9.46875 21.4688C9.87031 21.4457 10.2661 21.4769 10.6563 21.5625C10.8184 21.6462 10.9121 21.7817 10.9375 21.9688C10.9792 23.3021 10.9792 24.6355 10.9375 25.9688C10.9063 26.25 10.75 26.4063 10.4688 26.4375C10.0178 26.5071 9.58031 26.4654 9.15625 26.3125C9.08019 26.2095 9.02813 26.095 9 25.9688C8.95831 24.6355 8.95831 23.3021 9 21.9688C9.0425 21.6868 9.19875 21.5202 9.46875 21.4688ZM21.4688 21.4688C21.8703 21.4457 22.2661 21.4769 22.6563 21.5625C22.8184 21.6462 22.9121 21.7817 22.9375 21.9688C22.9792 23.3021 22.9792 24.6355 22.9375 25.9688C22.9063 26.25 22.75 26.4063 22.4688 26.4375C22.0178 26.5071 21.5803 26.4654 21.1563 26.3125C21.0802 26.2095 21.0281 26.095 21 25.9688C20.9583 24.6355 20.9583 23.3021 21 21.9688C21.0425 21.6868 21.1988 21.5202 21.4688 21.4688ZM14.9688 22.5313C15.6358 22.5208 16.3024 22.5313 16.9688 22.5625C17.25 22.5938 17.4063 22.75 17.4375 23.0313C17.4792 23.6771 17.4792 24.323 17.4375 24.9688C17.4063 25.25 17.25 25.4063 16.9688 25.4375C16.3021 25.4792 15.6354 25.4792 14.9688 25.4375C14.6875 25.4063 14.5313 25.25 14.5 24.9688C14.4583 24.3438 14.4583 23.7188 14.5 23.0938C14.5141 22.7783 14.6703 22.5908 14.9688 22.5313ZM11.9688 23.4688C12.4688 23.4688 12.9688 23.4688 13.4688 23.4688C13.4688 23.8021 13.4688 24.1355 13.4688 24.4688C12.9688 24.4688 12.4688 24.4688 11.9688 24.4688C11.9688 24.1355 11.9688 23.8021 11.9688 23.4688ZM18.4688 23.4688C18.9688 23.4688 19.4688 23.4688 19.9688 23.4688C19.9688 23.8021 19.9688 24.1355 19.9688 24.4688C19.4688 24.4688 18.9688 24.4688 18.4688 24.4688C18.4688 24.1355 18.4688 23.8021 18.4688 23.4688Z" fill="#DC2626"/>
<path opacity="0.966" fill-rule="evenodd" clip-rule="evenodd" d="M21.594 31.9688C17.844 31.9688 14.094 31.9688 10.344 31.9688C8.44766 31.3317 7.69766 30.0297 8.09397 28.0625C8.34397 27.9375 8.59397 27.9375 8.84397 28.0625C8.8831 28.1094 8.91435 28.1615 8.93772 28.2188C8.92997 28.8534 9.05497 29.4576 9.31272 30.0312C9.71341 30.6016 10.2655 30.9036 10.969 30.9375C14.3023 30.9792 17.6357 30.9792 20.969 30.9375C21.949 30.8493 22.5845 30.3389 22.8752 29.4062C22.9207 28.9637 22.9832 28.5262 23.0627 28.0938C23.8304 27.8085 24.1325 28.0793 23.969 28.9062C23.9259 30.5114 23.1343 31.5322 21.594 31.9688Z" fill="#DC2626"/>
</g>
<defs>
<clipPath id="clip0_1636_1710">
<rect width="32" height="32" fill="white"/>
</clipPath>
</defs>
</svg>
