<svg width="32" height="32" viewBox="0 0 32 32" fill="none" xmlns="http://www.w3.org/2000/svg">
<g clip-path="url(#clip0_1636_1685)">
<path opacity="0.93" fill-rule="evenodd" clip-rule="evenodd" d="M14.5312 -0.03125C15.4896 -0.03125 16.4479 -0.03125 17.4062 -0.03125C23.6419 0.778037 28.0899 4.02804 30.75 9.71875C31.3835 11.2737 31.7897 12.8779 31.9688 14.5312C31.9688 15.4896 31.9688 16.4479 31.9688 17.4062C31.1594 23.6419 27.9094 28.0899 22.2188 30.75C20.6639 31.3835 19.0597 31.7897 17.4062 31.9688C16.4479 31.9688 15.4896 31.9688 14.5312 31.9688C8.29544 31.1593 3.84753 27.9093 1.1875 22.2188C0.553995 20.6638 0.147745 19.0596 -0.03125 17.4062C-0.03125 16.4479 -0.03125 15.4896 -0.03125 14.5312C0.778037 8.29556 4.02804 3.84764 9.71875 1.1875C11.2737 0.553995 12.8779 0.147745 14.5312 -0.03125ZM15.8438 0.96875C20.9159 1.10365 24.9888 3.16615 28.0625 7.15625C31.0989 11.5576 31.7239 16.2868 29.9375 21.3438C27.8754 26.2804 24.2401 29.3741 19.0312 30.625C12.9487 31.6328 7.95913 29.7682 4.0625 25.0312C0.868125 20.5873 0.180628 15.7748 2 10.5938C4.27742 5.25014 8.28781 2.09389 14.0312 1.125C14.6448 1.07071 15.249 1.01863 15.8438 0.96875ZM21.4688 21.4688C21.8703 21.4456 22.2661 21.4769 22.6562 21.5625C22.9185 21.7488 22.9706 21.9884 22.8125 22.2812C22.7656 22.3204 22.7135 22.3516 22.6562 22.375C22.2661 22.4606 21.8703 22.4919 21.4688 22.4688C21.4688 22.1354 21.4688 21.8021 21.4688 21.4688Z" fill="#DC2626"/>
<path opacity="0.929" fill-rule="evenodd" clip-rule="evenodd" d="M14.6563 1.96881C18.6804 1.69561 22.2116 2.86227 25.2501 5.46881C25.3851 6.04143 25.1664 6.30187 24.5938 6.25006C20.4844 2.90697 15.9427 2.15697 10.9688 4.00006C7.22421 5.68245 4.73461 8.48456 3.50008 12.4063C2.3586 16.9437 3.27526 21.0062 6.25008 24.5938C6.3019 25.1664 6.04146 25.3851 5.46883 25.2501C2.36761 21.6057 1.31553 17.4287 2.31258 12.7188C3.3441 8.75125 5.62535 5.74081 9.15633 3.68756C10.8825 2.74605 12.7158 2.17313 14.6563 1.96881Z" fill="#DC2626"/>
<path opacity="0.976" fill-rule="evenodd" clip-rule="evenodd" d="M9.71873 6.46878C9.88666 6.45853 10.0534 6.46896 10.2187 6.50003C10.3333 6.53128 10.4062 6.60421 10.4375 6.71878C10.4792 8.21878 10.4792 9.71878 10.4375 11.2188C10.3419 11.4073 10.1857 11.4906 9.96873 11.4688C9.75179 11.4906 9.59554 11.4073 9.49998 11.2188C9.46873 10.1357 9.45829 9.05234 9.46873 7.96878C9.21785 7.97915 8.96785 7.96871 8.71873 7.93753C8.53023 7.84196 8.44691 7.68571 8.46873 7.46878C8.46273 7.31715 8.50435 7.18171 8.59373 7.06253C8.87723 6.97634 9.16891 6.94509 9.46873 6.96878C9.45485 6.74653 9.53816 6.57984 9.71873 6.46878Z" fill="#DC2626"/>
<path opacity="0.982" fill-rule="evenodd" clip-rule="evenodd" d="M14.7187 6.46876C15.5523 6.45832 16.3857 6.46876 17.2187 6.50001C17.3333 6.53126 17.4062 6.6042 17.4375 6.71876C17.4987 8.26588 17.4779 9.80757 17.375 11.3438C17.3281 11.3829 17.276 11.4141 17.2187 11.4375C16.3854 11.4792 15.552 11.4792 14.7187 11.4375C14.6042 11.4063 14.5312 11.3333 14.5 11.2188C14.4583 11.0521 14.4583 10.8854 14.5 10.7188C14.5312 10.6042 14.6042 10.5313 14.7187 10.5C15.3017 10.4688 15.885 10.4584 16.4687 10.4688C16.4687 10.1354 16.4687 9.80207 16.4687 9.46876C15.885 9.47913 15.3017 9.46876 14.7187 9.43751C14.5302 9.34195 14.4469 9.1857 14.4687 8.96876C14.4469 8.75182 14.5302 8.59557 14.7187 8.50001C15.3017 8.46876 15.885 8.45838 16.4687 8.46876C16.4687 8.13545 16.4687 7.80207 16.4687 7.46876C15.8372 7.49682 15.2122 7.46557 14.5937 7.37501C14.4732 7.17151 14.4419 6.95276 14.5 6.71876C14.5431 6.60313 14.616 6.51976 14.7187 6.46876Z" fill="#DC2626"/>
<path opacity="0.983" fill-rule="evenodd" clip-rule="evenodd" d="M20.7186 6.46876C21.5522 6.45832 22.3856 6.46876 23.2186 6.50001C23.2759 6.52338 23.328 6.55463 23.3749 6.59376C23.4676 6.79388 23.4885 7.00226 23.4374 7.21876C23.4061 7.33332 23.3332 7.40626 23.2186 7.43751C22.6357 7.46876 22.0523 7.47913 21.4686 7.46876C21.4686 7.80207 21.4686 8.13545 21.4686 8.46876C22.0523 8.45838 22.6357 8.46876 23.2186 8.50001C23.2759 8.52338 23.328 8.55463 23.3749 8.59376C23.4768 9.46288 23.4976 10.3379 23.4374 11.2188C23.4061 11.3333 23.3332 11.4063 23.2186 11.4375C22.3853 11.4792 21.552 11.4792 20.7186 11.4375C20.6614 11.4141 20.6093 11.3829 20.5624 11.3438C20.4697 11.1436 20.4488 10.9353 20.4999 10.7188C20.5311 10.6042 20.6041 10.5313 20.7186 10.5C21.3016 10.4688 21.885 10.4584 22.4686 10.4688C22.4686 10.1354 22.4686 9.80207 22.4686 9.46876C21.885 9.47913 21.3016 9.46876 20.7186 9.43751C20.6614 9.41413 20.6093 9.38288 20.5624 9.34376C20.4605 8.47463 20.4396 7.59963 20.4999 6.71876C20.543 6.60313 20.6159 6.51976 20.7186 6.46876Z" fill="#DC2626"/>
<path opacity="0.929" fill-rule="evenodd" clip-rule="evenodd" d="M25.9065 6.65631C26.2606 6.57993 26.5419 6.68412 26.7502 6.96881C29.8424 10.9086 30.7174 15.3044 29.3752 20.1563C27.7339 24.9019 24.5151 28.0164 19.719 29.5001C14.8439 30.7005 10.5002 29.6901 6.68773 26.4688C6.54923 25.8994 6.76798 25.639 7.34398 25.6876C11.7229 29.2059 16.4937 29.8518 21.6565 27.6251C25.8466 25.411 28.2529 21.9422 28.8752 17.2188C29.1511 13.4842 28.0886 10.1926 25.6877 7.34381C25.6179 7.06737 25.6908 6.83818 25.9065 6.65631Z" fill="#DC2626"/>
<path opacity="0.987" fill-rule="evenodd" clip-rule="evenodd" d="M9.71877 12.4688C9.8867 12.4585 10.0534 12.469 10.2188 12.5C10.3333 12.5313 10.4063 12.6042 10.4375 12.7188C10.4688 13.6352 10.4792 14.5519 10.4688 15.4688C12.1355 15.4688 13.8021 15.4688 15.4688 15.4688C15.4583 14.5519 15.4688 13.6352 15.5 12.7188C15.5956 12.5303 15.7518 12.447 15.9688 12.4688C16.1857 12.447 16.342 12.5303 16.4375 12.7188C16.4688 13.6352 16.4792 14.5519 16.4688 15.4688C17.9689 15.4792 19.4689 15.4688 20.9688 15.4375C21.25 15.4063 21.4063 15.25 21.4375 14.9688C21.4583 14.2188 21.4792 13.4688 21.5 12.7188C21.5313 12.6042 21.6042 12.5313 21.7188 12.5C21.8855 12.4583 22.0521 12.4583 22.2188 12.5C22.3333 12.5313 22.4063 12.6042 22.4375 12.7188C22.448 13.1667 22.4583 13.6146 22.4688 14.0625C22.4763 14.5775 22.445 15.0879 22.375 15.5938C22.198 15.9375 21.9375 16.198 21.5938 16.375C19.8895 16.4672 18.1811 16.4984 16.4688 16.4688C16.4792 17.3857 16.4688 18.3023 16.4375 19.2188C16.342 19.4073 16.1857 19.4906 15.9688 19.4688C15.7518 19.4906 15.5956 19.4073 15.5 19.2188C15.4688 18.3023 15.4583 17.3857 15.4688 16.4688C13.8021 16.4688 12.1355 16.4688 10.4688 16.4688C10.4792 17.3857 10.4688 18.3023 10.4375 19.2188C10.342 19.4073 10.1857 19.4906 9.96877 19.4688C9.75183 19.4906 9.59558 19.4073 9.50002 19.2188C9.45833 17.0521 9.45833 14.8855 9.50002 12.7188C9.54314 12.6032 9.61602 12.5198 9.71877 12.4688Z" fill="#DC2626"/>
<path opacity="0.95" fill-rule="evenodd" clip-rule="evenodd" d="M21.7188 17.4688C21.8867 17.4585 22.0534 17.469 22.2188 17.5C22.3333 17.5313 22.4063 17.6042 22.4375 17.7188C22.4792 18.2188 22.4792 18.7188 22.4375 19.2188C22.4063 19.3333 22.3333 19.4063 22.2188 19.4375C22.0521 19.4792 21.8855 19.4792 21.7188 19.4375C21.6042 19.4063 21.5313 19.3333 21.5 19.2188C21.4583 18.7188 21.4583 18.2188 21.5 17.7188C21.5431 17.6032 21.616 17.5198 21.7188 17.4688Z" fill="#DC2626"/>
<path opacity="0.982" fill-rule="evenodd" clip-rule="evenodd" d="M8.71864 20.4688C9.5522 20.4583 10.3856 20.4688 11.2186 20.5C11.3332 20.5313 11.4061 20.6042 11.4374 20.7188C11.4976 21.5996 11.4768 22.4746 11.3749 23.3438C11.328 23.3829 11.2759 23.4141 11.2186 23.4375C10.6357 23.4688 10.0523 23.4791 9.46864 23.4688C9.46864 23.8021 9.46864 24.1354 9.46864 24.4688C10.0523 24.4584 10.6357 24.4688 11.2186 24.5C11.3332 24.5313 11.4061 24.6042 11.4374 24.7188C11.4791 24.8854 11.4791 25.0521 11.4374 25.2188C11.4061 25.3333 11.3332 25.4063 11.2186 25.4375C10.3853 25.4792 9.55195 25.4792 8.71864 25.4375C8.60408 25.4063 8.53114 25.3333 8.49989 25.2188C8.43964 24.3379 8.46045 23.4629 8.56239 22.5938C8.60927 22.5546 8.66139 22.5234 8.71864 22.5C9.30158 22.4688 9.88495 22.4584 10.4686 22.4688C10.4686 22.1354 10.4686 21.8021 10.4686 21.4688C9.83708 21.4968 9.21208 21.4656 8.59364 21.375C8.47308 21.1715 8.44183 20.9528 8.49989 20.7188C8.54302 20.6031 8.61589 20.5198 8.71864 20.4688Z" fill="#DC2626"/>
<path opacity="0.981" fill-rule="evenodd" clip-rule="evenodd" d="M14.7186 20.4688C14.8866 20.4585 15.0533 20.469 15.2186 20.5C15.3332 20.5313 15.4061 20.6042 15.4374 20.7188C15.4686 21.3017 15.479 21.8851 15.4686 22.4688C15.802 22.4688 16.1353 22.4688 16.4686 22.4688C16.4583 21.8851 16.4686 21.3017 16.4999 20.7188C16.5311 20.6042 16.6041 20.5313 16.7186 20.5C16.8853 20.4583 17.052 20.4583 17.2186 20.5C17.3332 20.5313 17.4061 20.6042 17.4374 20.7188C17.4791 22.2188 17.4791 23.7188 17.4374 25.2188C17.414 25.276 17.3828 25.3282 17.3436 25.375C17.1435 25.4677 16.9351 25.4886 16.7186 25.4375C16.6041 25.4063 16.5311 25.3333 16.4999 25.2188C16.4686 24.6358 16.4583 24.0525 16.4686 23.4688C15.885 23.4792 15.3016 23.4688 14.7186 23.4375C14.6614 23.4142 14.6093 23.3829 14.5624 23.3438C14.4605 22.4747 14.4396 21.5997 14.4999 20.7188C14.543 20.6032 14.6159 20.5198 14.7186 20.4688Z" fill="#DC2626"/>
<path opacity="0.966" fill-rule="evenodd" clip-rule="evenodd" d="M20.7188 20.4688C21.4482 20.4583 22.1774 20.4688 22.9063 20.5C23.8599 20.8973 24.1828 21.5952 23.875 22.5938C23.7219 22.8928 23.5031 23.1323 23.2188 23.3125C23.4663 23.7764 23.7059 24.2451 23.9375 24.7188C24.0335 25.4061 23.7523 25.6248 23.0938 25.375C22.7733 24.7653 22.4608 24.1507 22.1563 23.5313C21.9308 23.4694 21.7016 23.4486 21.4688 23.4688C21.4968 24.1003 21.4656 24.7253 21.375 25.3438C21.1715 25.4643 20.9528 25.4956 20.7188 25.4375C20.6042 25.4063 20.5313 25.3333 20.5 25.2188C20.4583 23.7188 20.4583 22.2188 20.5 20.7188C20.5431 20.6031 20.616 20.5198 20.7188 20.4688ZM21.4688 21.4688C21.4688 21.8021 21.4688 22.1354 21.4688 22.4688C21.8703 22.4919 22.2661 22.4606 22.6563 22.375C22.7135 22.3516 22.7656 22.3204 22.8125 22.2813C22.9706 21.9884 22.9185 21.7488 22.6563 21.5625C22.2661 21.4769 21.8703 21.4456 21.4688 21.4688Z" fill="#DC2626"/>
</g>
<defs>
<clipPath id="clip0_1636_1685">
<rect width="32" height="32" fill="white"/>
</clipPath>
</defs>
</svg>
