<svg width="32" height="32" viewBox="0 0 32 32" fill="none" xmlns="http://www.w3.org/2000/svg">
<g clip-path="url(#clip0_1636_1746)">
<path opacity="0.949" fill-rule="evenodd" clip-rule="evenodd" d="M1.53125 -0.03125C5.19792 -0.03125 8.86456 -0.03125 12.5312 -0.03125C13.3106 0.247802 13.8731 0.768637 14.2188 1.53125C16.8359 2.3307 19.4401 3.17445 22.0312 4.0625C23.4152 4.78862 23.936 5.91362 23.5938 7.4375C25.2604 8.6875 26.9271 9.9375 28.5938 11.1875C29.4674 12.1843 29.6445 13.2989 29.125 14.5312C28.9809 14.769 28.8247 14.9981 28.6562 15.2188C29.6296 16.5194 30.5566 17.8527 31.4375 19.2188C31.8875 20.5976 31.5438 21.7331 30.4062 22.625C26.3329 25.4221 22.2704 28.2346 18.2188 31.0625C17.9036 31.2826 17.5703 31.4701 17.2188 31.625C16.886 31.6799 16.5735 31.6278 16.2812 31.4688C15.8541 31.6914 15.4166 31.7122 14.9688 31.5312C14.6037 31.6954 14.2391 31.6954 13.875 31.5312C13.7812 31.5625 13.6875 31.5938 13.5938 31.625C9.21875 31.6667 4.84375 31.6667 0.46875 31.625C0.271969 31.5789 0.105302 31.4851 -0.03125 31.3438C-0.03125 21.3229 -0.03125 11.3021 -0.03125 1.28125C0.358283 0.68305 0.879119 0.245553 1.53125 -0.03125ZM2.09375 1.03125C5.38548 1.02083 8.67712 1.03125 11.9688 1.0625C12.6453 1.23903 13.0724 1.66612 13.25 2.34375C13.2812 11.7188 13.2917 21.0938 13.2812 30.4688C9.11456 30.4688 4.94792 30.4688 0.78125 30.4688C0.770831 21.1562 0.78125 11.8438 0.8125 2.53125C0.93475 1.7633 1.36183 1.2633 2.09375 1.03125ZM14.4688 2.78125C16.8228 3.55551 19.1769 4.33676 21.5312 5.125C22.3444 5.53271 22.6674 6.18896 22.5 7.09375C19.821 14.7766 17.1543 22.4641 14.5 30.1562C14.4688 21.0312 14.4583 11.9062 14.4688 2.78125ZM15.7812 30.1562C18.2014 23.1144 20.6286 16.0728 23.0625 9.03125C23.107 8.88456 23.1799 8.75956 23.2812 8.65625C24.86 9.80781 26.4121 10.9953 27.9375 12.2188C28.2472 12.6835 28.3305 13.1835 28.1875 13.7188C28.0286 14.0853 27.8203 14.4187 27.5625 14.7188C23.6341 19.8689 19.7071 25.0147 15.7812 30.1562ZM17.3438 30.1562C20.8167 25.5158 24.3167 20.8908 27.8438 16.2812C27.8751 16.2174 27.9167 16.207 27.9688 16.25C28.75 17.3646 29.5312 18.4792 30.3125 19.5938C30.5438 20.156 30.5021 20.6976 30.1875 21.2188C29.8724 21.5374 29.5287 21.8186 29.1562 22.0625C25.2369 24.7926 21.2994 27.4904 17.3438 30.1562ZM7.34375 26.7812C7.95556 26.8188 8.13262 27.1104 7.875 27.6562C7.42631 27.9372 7.12419 27.8226 6.96875 27.3125C7.01088 27.0731 7.13588 26.896 7.34375 26.7812Z" fill="#DC2626"/>
<path opacity="0.942" fill-rule="evenodd" clip-rule="evenodd" d="M7.03142 25.6562C8.75648 25.6066 9.41273 26.4191 9.00017 28.0937C8.38961 28.9844 7.58748 29.2031 6.59392 28.7499C5.93694 28.2798 5.69736 27.6444 5.87517 26.8437C6.06376 26.2489 6.44917 25.8531 7.03142 25.6562ZM7.34392 26.7812C7.13604 26.8959 7.01104 27.0731 6.96892 27.3124C7.12436 27.8225 7.42648 27.9371 7.87517 27.6562C8.13279 27.1104 7.95573 26.8187 7.34392 26.7812Z" fill="#DC2626"/>
</g>
<defs>
<clipPath id="clip0_1636_1746">
<rect width="32" height="31.75" fill="white"/>
</clipPath>
</defs>
</svg>
