<svg width="145" height="32" viewBox="0 0 145 32" fill="none" xmlns="http://www.w3.org/2000/svg">
<path fill-rule="evenodd" clip-rule="evenodd" d="M119.972 6.35135L120.53 10.14H119.388L119.972 6.35135ZM115.527 15.043H118.575L118.93 12.8887H121.038L121.394 15.043H124.442L121.877 2.56269H118.118L115.527 15.043ZM98.2832 2.56269L100.518 5.50945L102.778 2.56269H105.318V15.043H102.321V7.41622L100.518 9.59513L98.7146 7.41622V15.0183H95.7178V2.56269H98.2832ZM42.486 2.58742H48.632V5.68269H45.5336V14.9934H42.486V2.58742ZM135.642 2.56269H138.562V7.04487H139.197L140.873 2.56284H144.073L141.788 8.45636L144.403 14.9934H140.95L139.273 9.99149H138.562V14.9934H135.642V2.56269ZM125.712 2.56269H128.632V7.04487H130.715V2.56269H133.661V15.0183H130.715V10.0161H128.632V14.9934H125.712V2.56269ZM110.27 12.4924V9.6696H110.702C111.058 9.6696 111.997 9.6696 111.997 10.9572C111.997 12.2449 111.058 12.5172 110.702 12.5172L110.27 12.4924ZM107.35 14.9687H110.93C111.464 14.9934 112.023 14.8943 112.531 14.6964C113.038 14.4983 113.496 14.2011 113.877 13.8047C114.257 13.4334 114.537 12.963 114.74 12.4677C114.918 11.9724 114.994 11.4277 114.943 10.9077C114.943 7.73811 112.429 7.19324 110.803 7.19324H110.296V5.55891H114.283V2.58742H107.375V14.9934H107.35V14.9687ZM89.5463 12.1209C88.4797 12.1209 87.9464 10.9573 87.9464 8.80284C87.9464 6.64851 88.4797 5.48473 89.5463 5.48473C90.6129 5.48473 91.1464 6.64851 91.1464 8.80284C91.1464 10.9572 90.6129 12.1209 89.5463 12.1209ZM89.5463 15.0677C93.1018 15.0677 94.2955 11.9477 94.2955 8.82771C94.2955 5.70756 93.1018 2.58742 89.5463 2.58742C86.0162 2.58742 84.7971 5.70742 84.7971 8.82756C84.7971 11.9476 85.9908 15.0677 89.5463 15.0677ZM79.0828 5.31135H79.7939C80.4797 5.31135 80.9114 5.70756 80.9114 6.72284C80.9114 8.08473 80.2003 8.15905 79.7939 8.15905H79.0828V5.31135ZM76.1368 15.0183H79.1085V10.9077H80.1244C83.0955 10.9077 84.0098 8.33244 84.0098 6.69811C84.0098 5.06378 82.9686 2.53796 80.1244 2.53796H76.1368V15.0183ZM66.232 2.56269H74.4101V15.043H71.413V5.55891H69.2289V15.043H66.232V2.56269ZM60.1114 7.44095C60.2892 7.46567 60.4669 7.44095 60.6193 7.39149C60.7718 7.34189 60.9241 7.24284 61.0766 7.14378C61.2035 7.04473 61.3051 6.89607 61.3812 6.74756C61.4574 6.59891 61.5083 6.42567 61.5083 6.27702C61.5083 6.12851 61.4574 5.95513 61.4067 5.80662C61.3341 5.66244 61.2301 5.53562 61.1019 5.43513C60.975 5.33622 60.8225 5.26189 60.6702 5.21229C60.5178 5.16284 60.34 5.16284 60.1876 5.16284C59.6288 5.16284 59.0701 5.28647 58.5368 5.50945V2.85985C59.4003 2.63702 60.2637 2.53796 61.1527 2.53796C63.5908 2.53796 64.7082 4.14756 64.7082 5.68269C64.7337 6.27702 64.5559 6.87135 64.2002 7.39135C63.8701 7.88662 63.3623 8.28284 62.7781 8.50567V8.62945C63.413 8.80284 63.9463 9.19906 64.3273 9.71906C64.7082 10.2391 64.886 10.8828 64.8353 11.5268C64.8353 13.8049 63.1336 15.043 60.9495 15.043C59.9591 15.0924 58.9939 14.8696 58.1305 14.4239L58.1812 11.9228C58.8161 12.1953 59.4765 12.3191 60.1621 12.2943C60.3401 12.3191 60.4924 12.2943 60.6447 12.2449C60.7972 12.1954 60.9495 12.1209 61.0766 11.9972C61.2035 11.8983 61.3051 11.7496 61.3812 11.6009C61.4574 11.4524 61.4828 11.3038 61.4828 11.1305C61.4828 10.4619 61.0257 9.99149 59.9844 9.99149H58.8161V7.44095H60.1114ZM52.7717 6.32662L53.3559 10.1153H52.213L52.7717 6.32662ZM48.3272 15.0183H51.3749L51.7304 12.8639H53.813L54.1686 15.0183H57.2162L54.6512 2.53796H50.8924L48.3272 15.0183ZM46.2701 24.7252H47.3623L46.8036 20.9858L46.2701 24.7252ZM48.6575 17.2965L51.1464 29.5538H48.175L47.8195 27.4491H45.7877L45.4322 29.5538H42.4607L44.9496 17.2965H48.6575ZM73.9781 20.1934C72.9622 20.1934 72.4289 21.3572 72.4289 23.5118C72.4289 25.6661 72.9622 26.83 73.9781 26.83C75.0194 26.83 75.5274 25.6661 75.5274 23.5118C75.5274 21.3572 74.994 20.1934 73.9781 20.1934ZM73.9781 17.2219C77.4322 17.2219 78.6004 20.3668 78.6004 23.5118C78.6004 26.6567 77.4322 29.8014 73.9781 29.8014C70.5242 29.8014 69.356 26.6567 69.356 23.5118C69.356 20.3668 70.5242 17.2219 73.9781 17.2219ZM60.4924 17.2965V20.3422H62.9306V29.5288H65.8766V20.3422H68.3146V17.2965H60.4924ZM55.1337 24.4526H55.6416C55.8957 24.4526 56.0987 24.5518 56.2765 24.7745C56.4543 24.9727 56.5306 25.2948 56.5306 25.6907C56.5306 26.0871 56.4543 26.3839 56.2765 26.6071C56.0987 26.805 55.8957 26.9288 55.6416 26.9288H55.1337V24.4526ZM55.1337 19.8965H55.5654C55.7941 19.8965 55.9719 19.9953 56.0987 20.1689C56.2258 20.3422 56.302 20.6143 56.302 20.9858C56.302 21.3572 56.2258 21.6299 56.0987 21.828C55.9719 22.0012 55.7941 22.1001 55.5654 22.1001H55.1337V19.8965ZM52.2639 29.5288H55.7178C56.302 29.5288 56.8353 29.43 57.2924 29.2567C57.7495 29.0833 58.1559 28.8357 58.4608 28.5383C58.7909 28.2167 59.0194 27.8697 59.1973 27.4491C59.375 27.028 59.4512 26.5823 59.4512 26.0871C59.4512 25.7649 59.4258 25.443 59.3496 25.1214C59.2734 24.7995 59.1718 24.5023 59.0448 24.2299C58.8925 23.9573 58.7147 23.7096 58.5115 23.5118C58.283 23.3137 58.0289 23.1404 57.6988 23.0411C57.7495 23.0411 57.8259 22.9668 57.9782 22.8927C58.1305 22.7934 58.283 22.6452 58.4608 22.4715C58.6385 22.2737 58.7654 22.0261 58.9179 21.7042C59.0448 21.3822 59.121 20.9858 59.121 20.5403C59.121 20.0946 59.0448 19.6488 58.867 19.2524C58.718 18.8615 58.484 18.5067 58.1814 18.2124C57.8766 17.9156 57.521 17.6926 57.0893 17.5191C56.6575 17.3457 56.1751 17.2715 55.6416 17.2715H52.2639V29.5288ZM118.27 29.7269H121.191V24.7745H123.273V29.7519H126.219V17.2965H123.273V21.7784H121.191V17.2965H118.27V29.7269ZM128.277 29.7269H131.324V20.4165H134.423V17.2965H128.277V29.7269ZM100.467 22.1499V24.7745H101.686C102.702 24.7745 103.159 25.2204 103.159 25.9138C103.159 26.0871 103.108 26.2357 103.032 26.3839C102.956 26.5329 102.854 26.6567 102.727 26.7804C102.6 26.8792 102.448 26.9785 102.296 27.028C102.143 27.0776 101.965 27.1023 101.813 27.0776C101.127 27.1023 100.442 26.9785 99.8322 26.7061L99.7813 29.2072C100.645 29.6526 101.635 29.8757 102.626 29.8263C104.785 29.8263 106.512 28.5633 106.512 26.2852C106.562 25.6411 106.384 25.022 106.004 24.5023C105.623 23.9823 105.089 23.5858 104.454 23.4124V23.2887C105.039 23.0661 105.521 22.6452 105.851 22.1499C106.181 21.6299 106.334 21.0356 106.308 20.4165C106.308 18.8565 105.216 17.2469 102.753 17.2469C101.864 17.2469 101 17.3457 100.137 17.5688V20.1689C100.67 19.9458 101.229 19.8469 101.788 19.8715C101.94 19.8469 102.118 19.8715 102.27 19.9212C102.423 19.9708 102.575 20.045 102.702 20.1441C102.829 20.243 102.931 20.3918 103.007 20.5156C103.083 20.6641 103.108 20.8124 103.108 20.9858C103.083 21.3077 102.931 21.6299 102.677 21.8524C102.423 22.0756 102.092 22.1743 101.737 22.1743H100.467V22.1499ZM81.0131 17.2219V24.0565C81.0131 26.2601 80.7083 26.7804 80.0734 26.7804C79.8448 26.7554 79.6163 26.731 79.3876 26.6811V29.6031C79.7686 29.7519 80.175 29.8263 80.6067 29.8263C83.8067 29.8263 83.8067 26.83 83.8067 25.1458V20.2184H84.9751V29.6526H87.7686V17.2219H81.0131ZM89.9527 17.3212V29.7519H92.6703L95.3877 23.0411V29.7519H98.1051V17.3212H95.3877L92.6956 24.0316V17.3212H89.9527ZM110.702 17.3212V24.0316L113.394 17.3212H116.137V29.7519H113.419V23.0411L110.702 29.7519H107.985V17.3212H110.702Z" fill="#476BF0"/>
<path d="M0.403564 16.0001C0.403564 24.8056 7.69877 31.9631 16.654 31.9631C25.6094 31.9631 32.9044 24.8056 32.9044 16.0001C32.9044 7.19439 25.6094 0.0368652 16.654 0.0368652C7.69862 0.0368652 0.403564 7.19439 0.403564 16.0001ZM0.956953 16.0001C0.956953 7.48952 8.00046 0.577956 16.6541 0.577956C25.3077 0.577956 32.3512 7.51425 32.3512 16.0001C32.3512 24.5105 25.3077 31.422 16.6541 31.422C8.00075 31.422 0.956953 24.5105 0.956953 16.0001ZM5.45993 11.6219C9.61034 8.94087 14.2139 7.39119 22.012 8.6949C22.4397 8.44894 22.6661 8.22756 22.792 7.71105C20.855 7.02232 18.7418 6.77636 15.9999 6.82552C13.5599 6.89927 9.13252 7.78479 6.79312 9.16225L7.52264 8.27672C9.1828 7.34203 13.4592 6.0629 16.6791 6.01388C18.9431 5.96457 20.1255 6.08763 22.8171 6.80079C22.5907 6.33359 22.012 6.11221 21.2071 5.76777C18.591 4.61185 13.7108 4.51337 9.71105 6.23526C10.2142 5.91541 10.7173 5.5957 11.3462 5.32516C12.6543 4.73476 14.8177 4.16908 17.5092 4.19367C19.6726 4.21839 22.2133 4.95614 23.7982 6.48108C24.0498 6.77636 24.2006 7.09606 24.2762 7.36661C25.5087 7.98159 26.2382 8.57185 26.6407 9.23599C26.8169 9.58028 26.8671 9.97388 26.7917 10.3921C27.32 10.6872 27.5464 10.9577 27.7979 11.2774C27.9739 11.548 28.1249 11.8678 28.15 12.163C28.2003 12.5564 28.2506 12.9746 27.8482 13.4665C28.2759 13.6633 28.6029 14.2536 28.6532 14.4996C28.8544 15.4097 28.2506 16.3198 27.4457 17.0085C26.5402 17.7956 24.5277 18.7302 22.8926 19.1484C19.6224 19.9601 16.7546 20.3044 14.4654 20.698C15.4968 20.9439 16.8804 21.2636 19.1695 21.2636C24.0246 21.2636 28.3262 19.0008 28.3262 19.0008C28.3262 19.0008 28.2255 19.2959 28.1249 19.5665C25.0308 21.3867 20.1255 22.1737 18.0376 22.0754C15.8993 21.9769 14.1133 21.6572 12.3524 21.1407C11.8242 21.2882 11.2959 21.4358 10.7677 21.6572C13.4844 22.9116 15.4968 23.1822 17.7861 23.3544C20.1003 23.5266 23.9491 22.9608 27.2193 21.8047C27.0684 21.9524 26.9928 22.1737 26.842 22.3214C25.1817 23.1822 21.6599 24.0431 19.8991 24.1169C18.1382 24.1906 15.9999 24.1169 14.1385 23.7726C12.5286 23.4773 11.2204 22.9608 9.86204 22.3705C9.61049 22.5426 9.48464 22.7886 9.43436 23.0345C14.7421 25.7894 19.7733 25.8632 25.4584 24.1169L24.9301 24.6088C18.6413 27.1176 13.7359 26.1337 9.93746 24.3382C9.81176 24.2891 9.66077 24.2152 9.56021 24.166C9.91232 24.781 12.8053 26.847 16.0503 27.1176C18.2892 27.2898 21.0058 26.9208 22.641 26.2814L21.6851 26.7733C20.9053 27.1422 18.8174 28.0031 15.9245 27.8309C12.0506 27.5849 9.88718 25.8878 8.90611 25.0024C8.45328 24.5842 8.22687 24.1169 8.10117 23.5266C7.22066 23.0838 6.66727 22.6165 6.21444 21.9032C5.93775 21.485 5.98803 21.0422 6.0636 20.6488C6.08874 20.5257 6.11388 20.4028 6.16416 20.3044C5.73647 20.0092 5.30879 19.6895 5.1328 19.3697C4.7554 18.6811 4.98181 18.1153 5.25851 17.6479C5.03209 17.402 4.80583 17.1314 4.73041 16.8854C4.6297 16.5657 4.60456 16.2706 4.6297 15.9508C4.70512 15.3851 5.00695 14.8686 5.4095 14.4012C6.26487 13.442 7.57292 12.7041 9.8619 11.9662C12.1007 11.2529 12.9814 11.1298 14.6669 10.7609C16.6289 10.3182 18.9683 10.1707 20.9555 9.50654C15.4968 8.4981 9.78662 9.3589 5.15794 12.5073L5.45993 11.6219ZM24.1252 8.3013C24.0498 8.57185 23.7731 8.86712 23.5718 9.08836C24.1755 9.23599 24.7793 9.45737 25.3578 9.67876C25.2824 9.16225 24.6534 8.64559 24.1252 8.3013ZM7.2458 19.0745C6.89368 18.8777 6.64213 18.7548 6.36543 18.5334C6.21444 18.8777 6.51642 19.2468 6.81826 19.419C6.9691 19.2959 7.12009 19.1976 7.2458 19.0745ZM25.7099 12.0399C26.1125 12.2367 26.4646 12.3844 26.7917 12.6057C27.0433 12.1384 26.8923 11.8431 26.364 11.4005C26.1879 11.6463 25.9615 11.8431 25.7099 12.0399ZM24.5529 12.7286C23.7478 13.0977 22.6159 13.4665 20.9555 13.8847C19.6224 14.2044 16.327 14.6718 12.8053 15.4342C11.6732 15.6802 8.65456 16.3689 7.17037 17.6233C7.57292 17.9432 7.84961 18.0415 8.30244 18.2875C8.93125 17.8939 9.76148 17.525 10.994 17.2053C13.1574 16.6395 14.7673 16.3935 16.7294 16.0984C18.6664 15.7787 22.2889 15.0408 24.3013 14.3275C24.9553 14.1061 25.5591 13.7864 26.0119 13.442C25.8861 13.2945 24.6032 12.6795 24.5529 12.7286ZM9.30866 21.0177C9.61049 20.8454 9.96261 20.6734 10.3652 20.5012C9.81176 20.2798 9.23309 20.0092 8.62942 19.7633C8.35272 19.9355 8.12631 20.1076 7.95018 20.2798L9.30866 21.0177ZM7.44707 21.1899C7.44707 21.5342 7.64834 21.854 8.15145 22.2475C8.20173 22.0507 8.30244 21.9032 8.45343 21.731C8.10117 21.5835 7.7489 21.3867 7.44707 21.1899ZM10.189 14.6226C14.1636 13.4911 18.3143 13.1222 22.5404 12.0399C20.8801 11.5973 19.9745 11.4005 18.2387 11.5973C15.6981 11.8924 12.931 12.4335 10.5413 13.1222C9.61049 13.3928 4.70512 14.7702 6.11388 16.6886C6.11388 16.7134 6.94396 15.5573 10.189 14.6226ZM25.056 10.6379C24.4019 10.3428 23.5969 10.0722 22.7416 9.85097C22.3643 10.1461 21.9115 10.4166 21.2827 10.6626C22.3643 10.8593 23.1441 11.13 24.0498 11.4005C24.2006 11.4742 24.9301 10.7855 25.056 10.6379ZM27.0181 14.3766C26.8923 14.475 26.7666 14.5734 26.6156 14.6964C25.7099 15.3851 24.3013 15.9262 22.3392 16.4427C18.2639 17.525 15.2957 17.6725 11.9248 18.4843C11.2708 18.6318 10.5916 18.8532 9.93746 19.1237C10.5664 19.4436 11.2455 19.7141 11.9499 19.9846C13.3084 19.591 13.9875 19.419 15.9496 19.0991C16.7043 18.9762 19.0438 18.5826 20.704 18.2137C23.7478 17.5742 28.2003 16.1967 27.0181 14.3766Z" fill="#476BF0"/>
</svg>
