<svg width="104" height="32" viewBox="0 0 104 32" fill="none" xmlns="http://www.w3.org/2000/svg">
<path d="M51.786 13.5138C51.0753 13.2393 50.1457 13.1572 49.1342 13.1572H43.5019V11.4009H53.1804V8.38232H39.5376V21.4445H48.7788C50.0638 21.4445 51.0204 21.3348 51.7315 21.0602C53.2352 20.4839 54.2468 19.0845 54.2468 17.2459C54.2468 15.38 53.2898 14.0901 51.786 13.5138ZM49.8175 18.0417C49.599 18.1241 49.2982 18.1514 48.9153 18.1514H43.5019V16.0658H48.9153C49.3528 16.0658 49.7081 16.0935 49.9817 16.2306C50.3097 16.3952 50.4738 16.6971 50.4738 17.0811C50.4738 17.4654 50.2824 17.8771 49.8175 18.0417Z" fill="#333333"/>
<path d="M65.3623 8.38232H59.5663L54.2349 21.4445H58.7187L59.4569 19.551H65.4716L66.2373 21.4445H70.6938L65.3623 8.38232ZM60.441 16.6696L62.3277 11.4009H62.6284L64.5148 16.6696H60.441Z" fill="#333333"/>
<path d="M75.7962 16.5875V21.4446H71.832V8.38232H75.7962V13.1573H82.1665V8.38232H86.1309V21.4446H82.1665V16.5875H75.7962Z" fill="#333333"/>
<path d="M92.4058 16.5052V21.4446H88.4414V8.38232H92.4058V13.2945H93.4994L98.284 8.38232H103.26L96.9168 14.639L103.506 21.4446H98.2291L93.4994 16.5052H92.4058Z" fill="#333333"/>
<path d="M0.505859 0.764648H31.948V15.5482C31.948 19.617 29.7854 23.377 26.2749 25.4115L16.227 31.2352L6.17895 25.4115C2.66839 23.377 0.505863 19.617 0.505863 15.5482L0.505859 0.764648Z" fill="#FFDD2D"/>
<path fill-rule="evenodd" clip-rule="evenodd" d="M9.17969 8.38232V13.2878C9.84799 12.5302 11.0631 12.0177 12.4525 12.0177H13.9622V17.7201C13.9622 19.2373 13.5515 20.7228 12.9422 21.4532H19.5096C18.9016 20.722 18.4919 19.2383 18.4919 17.7231V12.0177H20.0017C21.391 12.0177 22.6061 12.5302 23.2744 13.2878V8.38232H9.17969Z" fill="#333333"/>
</svg>
