<svg width="160" height="24" viewBox="0 0 160 24" fill="none" xmlns="http://www.w3.org/2000/svg">
<path d="M71.3976 7.18868L74.7216 4.77737H63.5968V19.2241H74.7216V16.8113H66.7753V13.1227H73.5656V10.7114H66.7753V7.18868H71.3976ZM55.194 10.4053H51.3407V7.18868H57.5059L60.8283 4.77737H48.1638V19.2241H54.7854C58.4932 19.2241 60.6349 17.5683 60.6349 14.685C60.6349 11.9178 58.7098 10.4053 55.194 10.4053ZM54.6647 16.8113H51.3423V12.8151H54.6647C56.6873 12.8151 57.6266 13.4786 57.6266 14.8252C57.6266 16.1734 56.6145 16.8113 54.6647 16.8113ZM83.7248 4.77737H77.6819V19.2241H80.8604V15.1329H83.7496C87.6028 15.1329 90.0091 13.1468 90.0091 9.95588C90.0091 6.76342 87.5997 4.77737 83.7248 4.77737ZM83.6536 12.7216H80.8372V7.18868H83.6536C85.6994 7.18868 86.8074 8.18246 86.8074 9.95588C86.8074 11.7278 85.6994 12.7216 83.6536 12.7216ZM42.7228 16.1025C41.8815 16.5526 40.9373 16.7886 39.9776 16.7887C37.1117 16.7887 35.0411 14.7785 35.0411 12.0128C35.0411 9.24561 37.1117 7.23693 39.9776 7.23693C41.0151 7.22199 42.0294 7.53699 42.8667 8.1342L45.1539 6.47991L45.01 6.33816C43.6854 5.18001 41.9042 4.58887 39.8817 4.58887C37.6904 4.58887 35.6926 5.32176 34.2473 6.64579C33.527 7.32964 32.9587 8.15054 32.5777 9.05749C32.1968 9.96443 32.0113 10.938 32.0329 11.9178C32.0186 12.9108 32.207 13.8966 32.5872 14.8179C32.9674 15.7393 33.5317 16.5778 34.2473 17.2848C35.7584 18.6834 37.7732 19.4471 39.8569 19.4111C42.1441 19.4111 44.1434 18.6315 45.4913 17.2139L43.4455 15.724L42.7228 16.1025ZM128.219 4.8015V19.2482H131.398V13.3368H138.165V19.2482H141.344V4.8015H138.165V10.7355H131.4V4.8015H128.219ZM122.755 19.2482H126.101L119.889 4.8015H116.663L110.331 19.2482H113.534L114.809 16.3378H121.551L122.755 19.2482ZM115.772 13.928L118.229 8.1342L120.539 13.928H115.773H115.772ZM148.47 13.4077H150.443L155.307 19.2226H159.4L152.9 11.7519L158.581 4.77737H154.946L150.226 10.9723H148.471V4.77737H145.293V19.2241H148.47V13.4062V13.4077ZM99.8325 10.4279V7.21281H108.139V4.79999H96.6555V19.2467H103.276C106.985 19.2467 109.127 17.5924 109.127 14.7076C109.127 11.9419 107.2 10.4279 103.686 10.4279H99.8325ZM99.8325 16.8354V12.8392H103.157C105.178 12.8392 106.117 13.5027 106.117 14.8494C106.117 16.1975 105.13 16.8596 103.157 16.8596H99.8341L99.8325 16.8354ZM22.0888 4.68236C22.666 5.41526 23.1472 6.22054 23.5573 7.07105L12.4325 15.1329L7.76221 12.2481V8.79622L12.4093 11.6569L22.0888 4.68236Z" fill="#21A038"/>
<path d="M3.01905 12.0129C3.01905 11.847 3.01905 11.7052 3.04381 11.5393L0.227404 11.3976C0.227404 11.5861 0.202644 11.8002 0.202644 11.9887C0.199057 15.1688 1.48891 18.2206 3.7897 20.4758L5.78749 18.5154C4.90702 17.6643 4.20888 16.6512 3.73362 15.5349C3.25836 14.4186 3.01547 13.2214 3.01905 12.0129Z" fill="url(#paint0_linear_1621_1416)"/>
<path d="M12.4092 2.79121C12.5779 2.79121 12.7218 2.79121 12.8905 2.81533L13.036 0.0481329C12.8425 0.0481329 12.6259 0.0255127 12.4325 0.0255127C10.8243 0.0259788 9.23225 0.337606 7.74864 0.942319C6.26503 1.54703 4.9194 2.43279 3.78979 3.54823L5.78759 5.51015C6.64998 4.64976 7.68013 3.96602 8.81752 3.4991C9.95492 3.03218 11.1766 2.7915 12.4108 2.79121H12.4092Z" fill="url(#paint1_linear_1621_1416)"/>
<path d="M12.4092 21.2328C12.2405 21.2328 12.0966 21.2328 11.9279 21.2086L11.7825 23.9774C11.9744 23.9774 12.191 24 12.3829 24C13.9913 23.9997 15.5837 23.6882 17.0675 23.0835C18.5514 22.4787 19.8973 21.5929 21.0271 20.4773L19.0293 18.5168C18.1718 19.3829 17.1427 20.0704 16.0045 20.5375C14.8663 21.0046 13.6426 21.2416 12.4077 21.2343L12.4092 21.2328Z" fill="url(#paint2_linear_1621_1416)"/>
<path d="M17.7062 4.39887L20.0893 2.6737C17.9209 0.948383 15.2086 0.00411955 12.4092 0V2.76569C14.3031 2.7781 16.1491 3.34825 17.7062 4.39887Z" fill="url(#paint3_linear_1621_1416)"/>
<path d="M24.6405 12.0129C24.6405 11.28 24.5678 10.5697 24.4471 9.86096L21.8241 11.7761V12.0129C21.8259 13.3001 21.5503 14.5734 21.015 15.7501C20.4797 16.9269 19.6967 17.981 18.7168 18.8442L20.6202 20.9026C21.8883 19.7751 22.901 18.4021 23.5933 16.8713C24.2856 15.3405 24.6423 13.6857 24.6405 12.0129Z" fill="#21A038"/>
<path d="M12.4092 21.2328C11.0942 21.2329 9.79407 20.9612 8.59475 20.4356C7.39544 19.91 6.32418 19.1424 5.45173 18.1836L3.35645 20.0505C4.49394 21.294 5.88872 22.2887 7.44902 22.9691C9.00932 23.6496 10.6998 24.0004 12.4092 23.9985V21.2328Z" fill="url(#paint4_linear_1621_1416)"/>
<path d="M6.12489 5.1799L4.22303 3.12146C2.95235 4.24728 1.93803 5.62024 1.24554 7.15171C0.553055 8.68319 0.197793 10.3391 0.202687 12.0127H3.0191C3.01928 10.7257 3.29568 9.45297 3.83055 8.27625C4.36542 7.09953 5.14693 6.04483 6.12489 5.1799Z" fill="url(#paint5_linear_1621_1416)"/>
<defs>
<linearGradient id="paint0_linear_1621_1416" x1="3.48949" y1="20.1395" x2="0.743004" y2="11.9316" gradientUnits="userSpaceOnUse">
<stop offset="0.144" stop-color="#F2E913"/>
<stop offset="0.304" stop-color="#E7E518"/>
<stop offset="0.582" stop-color="#CADB26"/>
<stop offset="0.891" stop-color="#A3CD39"/>
</linearGradient>
<linearGradient id="paint1_linear_1621_1416" x1="4.59294" y1="3.23607" x2="11.8461" y2="0.378126" gradientUnits="userSpaceOnUse">
<stop offset="0.059" stop-color="#0FA8E0"/>
<stop offset="0.538" stop-color="#0099F9"/>
<stop offset="0.923" stop-color="#0291EB"/>
</linearGradient>
<linearGradient id="paint2_linear_1621_1416" x1="11.6184" y1="21.646" x2="20.3003" y2="19.6171" gradientUnits="userSpaceOnUse">
<stop offset="0.123" stop-color="#A3CD39"/>
<stop offset="0.285" stop-color="#86C339"/>
<stop offset="0.869" stop-color="#21A038"/>
</linearGradient>
<linearGradient id="paint3_linear_1621_1416" x1="11.8304" y1="1.76287" x2="19.0343" y2="4.06261" gradientUnits="userSpaceOnUse">
<stop offset="0.057" stop-color="#0291EB"/>
<stop offset="0.79" stop-color="#0C8ACB"/>
</linearGradient>
<linearGradient id="paint4_linear_1621_1416" x1="4.07293" y1="20.4893" x2="11.7966" y2="23.4726" gradientUnits="userSpaceOnUse">
<stop offset="0.132" stop-color="#F2E913"/>
<stop offset="0.298" stop-color="#EBE716"/>
<stop offset="0.531" stop-color="#D9E01F"/>
<stop offset="0.802" stop-color="#BBD62D"/>
<stop offset="0.983" stop-color="#A3CD39"/>
</linearGradient>
<linearGradient id="paint5_linear_1621_1416" x1="2.36142" y1="12.346" x2="5.33275" y2="4.35214" gradientUnits="userSpaceOnUse">
<stop offset="0.07" stop-color="#A3CD39"/>
<stop offset="0.26" stop-color="#81C55F"/>
<stop offset="0.922" stop-color="#0FA8E0"/>
</linearGradient>
</defs>
</svg>
