<svg width="144" height="40" viewBox="0 0 144 40" fill="none" xmlns="http://www.w3.org/2000/svg">
<path d="M39.8706 32.44C39.8706 37.3 37.1894 40 32.3631 40H7.65594C2.82969 40 0.148438 37.3 0.148438 32.44V7.56C0.148438 2.7 2.82969 0 7.65594 0H32.3731C37.1894 0 39.8706 2.7 39.8706 7.56V32.44Z" fill="#FFE600"/>
<path fill-rule="evenodd" clip-rule="evenodd" d="M25.6895 18.0496V14.2297L27.0594 12.8492V16.1592L28.2518 17.3589L33.0475 12.5295L34.2297 13.7188C34.2194 12.8194 34.0408 10.2094 31.846 8.03936C29.4829 5.73982 26.9206 6.77908 26.0468 7.65902L21.2602 12.4791L22.482 13.7096L20.0096 16.2188L17.5362 13.7291L18.7581 12.4997L13.9714 7.67958C13.0977 6.79964 10.5354 5.75935 8.17219 8.05889C5.97742 10.2289 5.79878 12.8389 5.78857 13.7394L6.97068 12.549L11.7665 17.3794L12.9588 16.1798V12.8697L14.3287 14.2493V18.0692L16.2551 19.9997L6.76141 29.5597L10.516 33.3292L20.0096 23.7795L29.5022 33.3395L33.2569 29.569L23.7632 19.9997L25.6895 18.0496ZM46.4949 21.6701H53.6549V23.9399H49.1766V26.2702H50.6659C51.6684 26.2702 52.9597 26.3905 53.9326 27.3506C54.3501 27.77 54.8667 28.54 54.8667 29.7797C54.8667 30.1539 54.8207 30.5126 54.7319 30.8478C54.5828 31.407 54.3123 31.8983 53.9326 32.2797C53.6743 32.5398 53.3813 32.7392 53.0598 32.8903C52.9138 32.9582 52.7617 33.0167 52.6035 33.0671C52.5258 33.0918 52.4473 33.1144 52.3666 33.135C51.7827 33.284 51.1315 33.3303 50.4372 33.3303H46.4949V21.6701ZM50.229 31.1603C50.5965 31.1603 51.2519 31.1304 51.6684 30.7902C51.7491 30.7203 51.8868 30.5825 51.9879 30.3636C52.0614 30.2063 52.1155 30.0069 52.1155 29.7602C52.1155 29.6718 52.1083 29.5885 52.0961 29.5104C52.0828 29.4271 52.0625 29.35 52.0379 29.2781C51.9991 29.165 51.9481 29.0663 51.891 28.981C51.8368 28.9008 51.7766 28.8329 51.7164 28.7764C51.6898 28.7517 51.6633 28.7291 51.6367 28.7086L51.599 28.6798C51.1825 28.3796 50.5066 28.3704 50.229 28.3704H49.1663V31.1705H50.229V31.1603ZM64.5777 25.5301H62.0756V26.41C61.5928 25.7491 60.9507 25.4612 60.3832 25.3441C60.1106 25.2875 59.8554 25.27 59.6421 25.27C58.5702 25.27 57.627 25.6596 56.9512 26.3401C56.2366 27.0597 55.7496 28.1802 55.7496 29.4898C55.7496 30.5198 56.0671 31.5396 56.8818 32.4103C57.7362 33.32 58.6692 33.5996 59.7819 33.5996C60.1096 33.5996 60.523 33.5585 60.9385 33.3796C61.3397 33.2069 61.7439 32.9057 62.0756 32.3897V33.3303H64.5777V25.5301ZM58.3221 29.4199C58.3221 29.0344 58.418 28.7219 58.5477 28.4752C58.6539 28.2748 58.7815 28.1175 58.8979 28.0003C59.2256 27.6703 59.7216 27.4401 60.2586 27.4503C60.7149 27.4503 61.2713 27.62 61.6479 27.99C61.7174 28.0558 61.7817 28.1278 61.8399 28.2049C61.9062 28.2943 61.9644 28.3909 62.0144 28.4927C62.1512 28.7692 62.2247 29.0879 62.2247 29.4199C62.2247 30.0901 61.9461 30.5805 61.6183 30.8899C61.455 31.0544 61.257 31.189 61.0365 31.2826C60.815 31.3772 60.571 31.4296 60.3178 31.4296C59.7216 31.4296 59.1858 31.1901 58.8376 30.82C58.6191 30.5702 58.3221 30.12 58.3221 29.4199ZM66.0875 25.5301H68.5895V28.2398H71.3907V25.5301H73.8927V33.3303H71.3907V30.27H68.5895V33.3303H66.0875V25.5301ZM77.8943 25.5301H75.3923V33.3303H77.8943V29.8702L80.5362 33.3303H83.7641L80.2188 29.1506L83.5354 25.5301H80.427L77.8943 28.6304V25.5301ZM50.5751 6.67012C51.5786 6.67012 52.6913 6.80992 53.6141 7.63023C54.6074 8.49989 54.7462 9.66046 54.7462 10.4602C54.7462 11.9302 54.1898 12.7505 53.7529 13.21C52.8301 14.1506 51.6184 14.24 50.8038 14.24H49.1756V18.3303H46.504V6.67012H50.5751ZM49.1653 12.0402H50.1188C50.2607 12.0402 50.4414 12.0371 50.6353 12.0093C50.9467 11.9651 51.2907 11.8582 51.5592 11.6002C51.797 11.3597 51.996 10.9505 51.996 10.4499C51.996 10.2258 51.9604 10.0192 51.896 9.83829C51.8205 9.62448 51.7041 9.44458 51.5592 9.30992C51.1611 8.9306 50.5853 8.86995 50.0687 8.86995H49.1653V12.0402ZM63.7733 10.5301H61.2713V11.41C60.9283 10.9403 60.5046 10.6586 60.0851 10.4931C59.6297 10.3132 59.1786 10.27 58.8376 10.27C57.7658 10.27 56.8225 10.6596 56.1467 11.3401C55.4322 12.0597 54.9452 13.1802 54.9452 14.4898C54.9452 15.1559 55.0779 15.8179 55.3924 16.4378C55.5639 16.777 55.7894 17.1029 56.0773 17.4103C56.9317 18.32 57.8648 18.5996 58.9775 18.5996C59.3041 18.5996 59.7145 18.5595 60.128 18.3827C60.5311 18.21 60.9374 17.9088 61.2713 17.3897V18.3303H63.7733V10.5301ZM57.5177 14.4199C57.5177 13.7199 57.8352 13.2604 58.0934 13.0003C58.4211 12.6703 58.9275 12.4401 59.4542 12.4503C59.5889 12.4503 59.7318 12.4658 59.8768 12.4956C59.9615 12.513 60.0462 12.5357 60.131 12.5644C60.3913 12.6528 60.6425 12.7927 60.8436 12.99C61.0354 13.173 61.1845 13.4022 61.2825 13.6603C61.3243 13.7702 61.357 13.8854 61.3805 14.0036C61.3907 14.055 61.3989 14.1074 61.4049 14.1609C61.4101 14.203 61.4132 14.2462 61.4152 14.2894C61.4182 14.3325 61.4203 14.3757 61.4203 14.4199C61.4203 15.0901 61.1416 15.5805 60.814 15.8899C60.6425 16.0626 60.4331 16.2024 60.1994 16.297C60.1085 16.334 60.0136 16.3638 59.9157 16.3854L59.8074 16.407L59.7063 16.4193C59.6431 16.4265 59.5787 16.4296 59.5134 16.4296C59.2531 16.4296 59.004 16.3833 58.7763 16.3011C58.4845 16.1952 58.2292 16.0287 58.0332 15.82C57.8147 15.5702 57.5177 15.12 57.5177 14.4199ZM67.7851 10.5301V14.9904L71.0824 10.5301H73.4068V18.3303H70.9037V13.8001L67.6065 18.3303H65.2831V10.5301H67.7851ZM72.4932 7.38044C72.2839 8.00955 71.8674 8.55026 71.3805 8.86995C70.7251 9.30992 69.9207 9.36029 69.3449 9.36029C68.7692 9.36029 67.974 9.30992 67.3094 8.86995C67.2522 8.83295 67.1961 8.79389 67.141 8.75071C67.0788 8.7024 67.0175 8.64997 66.9583 8.59343C66.8949 8.53278 66.8337 8.46905 66.7745 8.4012C66.5264 8.11338 66.3233 7.76181 66.1967 7.38044L67.9342 6.69993C68.0036 7.04944 68.173 7.33007 68.3813 7.49968C68.61 7.68986 68.8978 7.81013 69.3347 7.81013C69.4419 7.81013 69.5399 7.80293 69.6307 7.78957L69.6828 7.78134L69.7339 7.77107L69.8022 7.75359L69.8706 7.73303C70.034 7.67855 70.1687 7.59837 70.2882 7.49968C70.4965 7.33007 70.6659 7.04944 70.7353 6.69993L72.4932 7.38044ZM78.9376 18.4505V22.2201H81.4601V18.4505H81.5591C83.3169 18.4505 84.2898 17.7197 84.7369 17.2797C84.9666 17.0525 85.1953 16.7626 85.3851 16.4018C85.4178 16.3401 85.4494 16.2764 85.479 16.2106L85.5321 16.0893C85.5984 15.9279 85.6566 15.7552 85.7046 15.5692C85.7638 15.342 85.8067 15.0963 85.8302 14.8301C85.8363 14.755 85.8414 14.679 85.8445 14.6008C85.8475 14.5309 85.8486 14.461 85.8486 14.3901C85.8486 13.8843 85.773 13.4392 85.6495 13.0507C85.5403 12.7053 85.3923 12.4051 85.2239 12.1471C85.184 12.0854 85.1421 12.0258 85.0992 11.9682L85.0625 11.9199L84.9992 11.8408C84.841 11.6465 84.6736 11.483 84.5082 11.3504C83.7436 10.7398 82.5922 10.4098 81.5693 10.4098H81.4499V6.67012H78.9479V10.4098H78.8284C77.7953 10.4098 76.653 10.7398 75.8884 11.3504C75.2433 11.8706 74.548 12.8502 74.548 14.3901C74.548 15.8097 75.1044 16.74 75.6607 17.2797C76.1068 17.7197 77.0807 18.4505 78.8375 18.4505H78.9376ZM78.4303 12.4935C78.6344 12.4483 78.8478 12.4298 79.057 12.4401V16.4203C78.421 16.4399 77.8249 16.2003 77.4972 15.8303C77.1991 15.5198 76.9908 15.01 76.9908 14.4004C76.9908 13.7805 77.1991 13.2799 77.4972 12.9797C77.7269 12.7423 78.0637 12.5747 78.4303 12.4935ZM82.8801 15.8406C82.5523 16.2003 81.9663 16.4501 81.3213 16.4306V12.4503C81.7234 12.4226 82.1359 12.513 82.4737 12.6929C82.6268 12.7752 82.7657 12.8749 82.8801 12.99C83.0158 13.1267 83.1332 13.3066 83.221 13.5194C83.325 13.7754 83.3863 14.0776 83.3863 14.4096C83.3863 15.0202 83.1781 15.5301 82.8801 15.8406ZM90.9741 22.2201V18.4505H90.8741C90.3085 18.4505 89.8247 18.3745 89.4123 18.2573C89.1867 18.1936 88.9835 18.1165 88.8008 18.0332C88.2781 17.7947 87.9208 17.5007 87.6973 17.2797C87.6207 17.2057 87.5441 17.1245 87.4697 17.035C87.4043 16.9579 87.34 16.8747 87.2787 16.7863C87.1348 16.5786 87.001 16.3391 86.8908 16.0657C86.7673 15.7604 86.6734 15.4129 86.6234 15.0202C86.6081 14.902 86.5969 14.7787 86.5907 14.6522C86.5866 14.5669 86.5845 14.4795 86.5845 14.3901C86.5845 12.8502 87.2798 11.8706 87.9249 11.3504C88.6895 10.7398 89.8318 10.4098 90.8649 10.4098H90.9843V6.67012H93.4864V10.4098H93.6058C93.9232 10.4098 94.253 10.4417 94.5796 10.5034C94.745 10.5342 94.9093 10.5733 95.0717 10.6206C95.2146 10.6617 95.3544 10.709 95.4913 10.7614C95.8812 10.9125 96.2426 11.1099 96.5447 11.3504C97.1909 11.8706 97.885 12.8502 97.885 14.3901C97.885 14.9555 97.7972 15.4407 97.6564 15.856C97.5298 16.2281 97.3604 16.5437 97.1736 16.8079C97.0449 16.9888 96.9091 17.145 96.7734 17.2797C96.4876 17.5614 95.9853 17.9623 95.1993 18.2141C94.99 18.2809 94.7604 18.3375 94.5102 18.3786C94.2326 18.4248 93.9284 18.4505 93.5955 18.4505H93.4965V22.2201H90.9741ZM91.0935 12.4401C90.5076 12.4103 89.891 12.6097 89.5337 12.9797C89.2356 13.2799 89.0274 13.7805 89.0274 14.4004C89.0274 15.01 89.2356 15.5198 89.5337 15.8303C89.8614 16.2003 90.4576 16.4399 91.0935 16.4203V12.4401ZM93.3567 16.4306C94.0029 16.4501 94.5889 16.2003 94.9165 15.8406C95.0748 15.6761 95.2075 15.4551 95.2973 15.1929C95.3769 14.9606 95.4228 14.6964 95.4228 14.4096C95.4228 13.8001 95.2146 13.2902 94.9165 12.99C94.5491 12.62 93.9427 12.4103 93.3567 12.4503V16.4306ZM107.438 10.5301H104.936V11.41C104.22 10.4304 103.158 10.27 102.502 10.27C101.431 10.27 100.487 10.6596 99.811 11.3401C99.0968 12.0597 98.6099 13.1802 98.6099 14.4898C98.6099 15.1457 98.7385 15.7974 99.0416 16.409C99.2152 16.7585 99.4459 17.0936 99.7424 17.4103C100.596 18.32 101.529 18.5996 102.642 18.5996C103.288 18.5996 104.26 18.4403 104.936 17.3897V18.3303H107.438V10.5301ZM101.182 14.4199C101.182 14.0951 101.251 13.8227 101.35 13.5975C101.464 13.3364 101.619 13.1401 101.758 13.0003C102.086 12.6703 102.593 12.4401 103.119 12.4503C103.575 12.4503 104.132 12.62 104.508 12.99C104.876 13.3395 105.085 13.8597 105.085 14.4199C105.085 15.0901 104.806 15.5805 104.478 15.8899C104.151 16.2199 103.684 16.4296 103.178 16.4296C102.582 16.4296 102.046 16.1901 101.698 15.82C101.592 15.6997 101.469 15.5322 101.369 15.3132C101.262 15.0778 101.182 14.7818 101.182 14.4199ZM111.45 10.5301V14.9904L114.747 10.5301H117.071V18.3303H114.569V13.8001L111.271 18.3303H108.948V10.5301H111.45ZM116.158 7.38044C116.06 7.67238 115.919 7.94479 115.747 8.18533C115.626 8.35392 115.49 8.50606 115.343 8.63866C115.248 8.72501 115.148 8.80211 115.045 8.86995C114.879 8.98097 114.703 9.06732 114.523 9.13517C114.318 9.21227 114.107 9.26366 113.9 9.29759C113.581 9.35001 113.271 9.36029 113.01 9.36029C112.434 9.36029 111.638 9.30992 110.974 8.86995C110.487 8.55951 110.069 8.00955 109.862 7.38044L111.599 6.69993C111.668 7.04944 111.838 7.33007 112.046 7.49968C112.161 7.59426 112.289 7.67135 112.444 7.72481C112.6 7.77929 112.781 7.81013 113 7.81013C113.437 7.81013 113.724 7.68986 113.953 7.49968C114.059 7.41333 114.155 7.2982 114.233 7.15943C114.308 7.02579 114.366 6.8716 114.4 6.69993L116.158 7.38044ZM119.613 10.5496C119.195 10.71 118.66 10.9896 118.332 11.2003L119.305 12.8903C119.554 12.6796 119.812 12.5202 120.14 12.3804C120.468 12.2396 120.764 12.1697 121.163 12.1697C121.58 12.1697 121.827 12.2602 121.947 12.3105C122.127 12.3917 122.225 12.5038 122.277 12.6107C122.313 12.6878 122.325 12.7618 122.325 12.8204C122.325 12.9705 122.255 13.1997 121.957 13.3395C121.877 13.3776 121.769 13.4053 121.654 13.4259C121.43 13.467 121.175 13.4804 121.023 13.4804H120.309V15.1899H121.241C121.52 15.1899 121.936 15.2402 122.146 15.3297C122.244 15.3728 122.326 15.4273 122.387 15.4962C122.468 15.5866 122.513 15.7018 122.513 15.8498C122.513 15.9639 122.491 16.113 122.388 16.2497C122.335 16.3175 122.264 16.3833 122.166 16.4399C121.917 16.5797 121.54 16.63 121.262 16.63C120.999 16.63 120.711 16.5879 120.452 16.5211C120.31 16.4841 120.177 16.4399 120.06 16.3905C119.753 16.2497 119.385 15.9999 119.107 15.7604L118.044 17.4205C118.142 17.4997 118.304 17.6272 118.518 17.767C118.618 17.8317 118.729 17.8996 118.849 17.9664C119.025 18.063 119.221 18.1576 119.435 18.2398C120.13 18.4999 120.855 18.5903 121.55 18.5903C122.841 18.5903 123.745 18.4002 124.4 17.7505C124.657 17.4904 124.828 17.2129 124.932 16.9322C125.034 16.6609 125.074 16.3854 125.074 16.1202C125.074 16.0513 125.072 15.9834 125.066 15.9177C125.062 15.8755 125.058 15.8334 125.052 15.7922L125.038 15.7059C124.975 15.3811 124.827 15.0932 124.559 14.8301C124.45 14.7201 124.091 14.4096 123.516 14.2698C123.575 14.2482 123.633 14.2215 123.69 14.1917C123.739 14.167 123.784 14.1393 123.83 14.1095L123.89 14.0694C123.93 14.0406 123.97 14.0098 124.009 13.9779C124.066 13.9316 124.12 13.8813 124.172 13.8299C124.549 13.43 124.637 12.99 124.637 12.4997C124.637 12.3506 124.626 12.2036 124.6 12.0607C124.586 11.9826 124.566 11.9055 124.542 11.8295C124.456 11.5591 124.305 11.3042 124.062 11.0698C123.278 10.2998 121.858 10.27 121.441 10.27C120.845 10.27 120.199 10.3399 119.613 10.5496ZM134.131 14.8702H128.351C128.351 15.0151 128.371 15.1775 128.409 15.342C128.48 15.6524 128.618 15.9711 128.819 16.1993C128.918 16.3103 129.029 16.3977 129.144 16.4645C129.224 16.5118 129.308 16.5498 129.392 16.5797C129.639 16.6691 129.892 16.6897 130.099 16.6897C130.238 16.6897 130.378 16.6794 130.512 16.6588C130.734 16.6239 130.941 16.5591 131.102 16.4594C131.132 16.4399 131.43 16.2497 131.638 15.8097L134.003 16.0503C133.654 17.1502 132.959 17.7299 132.512 18.0096C131.768 18.4598 130.934 18.5893 130.06 18.5893C128.898 18.5893 127.875 18.3796 126.971 17.4699C126.297 16.7894 125.81 15.7593 125.81 14.46C125.81 13.3395 126.206 12.1903 126.992 11.3802C127.457 10.9115 127.981 10.6319 128.496 10.4695C129.016 10.305 129.526 10.2598 129.96 10.2598C130.825 10.2598 132.075 10.4201 133.04 11.4296C133.963 12.4103 134.131 13.6294 134.131 14.5998V14.8702ZM131.827 13.3693C131.808 13.2994 131.689 12.8101 131.321 12.4596C131.219 12.364 131.1 12.2797 130.967 12.2108C130.88 12.1656 130.787 12.1276 130.687 12.0978C130.522 12.0474 130.339 12.0196 130.139 12.0196C129.923 12.0196 129.739 12.0484 129.579 12.0957C129.257 12.1913 129.034 12.363 128.868 12.5295C128.679 12.7402 128.5 13.0198 128.431 13.3693H131.827ZM137.766 10.5301H135.263V18.3303H137.766V15.27H140.567V18.3303H143.068V10.5301H140.567V13.2398H137.766V10.5301Z" fill="#2B2D34"/>
</svg>
