<svg width="25" height="24" viewBox="0 0 25 24" fill="none" xmlns="http://www.w3.org/2000/svg">
<path d="M16.0117 3H21.0117M21.0117 3V8M21.0117 3L15.0117 9M5.01172 3C3.90715 3 3.01172 3.89543 3.01172 5V6C3.01172 14.2843 9.72745 21 18.0117 21H19.0117C20.1163 21 21.0117 20.1046 21.0117 19V15.7208C21.0117 15.2903 20.7363 14.9082 20.3279 14.7721L15.8345 13.2743C15.3624 13.1169 14.8464 13.3306 14.6239 13.7757L13.4952 16.033C11.0505 14.9308 9.08097 12.9612 7.97872 10.5165L10.236 9.38787C10.6811 9.16531 10.8948 8.64932 10.7375 8.17721L9.23964 3.68377C9.10353 3.27543 8.72139 3 8.29096 3H5.01172Z" stroke="#F5F5F4" stroke-width="2" stroke-linecap="round" stroke-linejoin="round"/>
</svg>
