<svg width="109" height="109" viewBox="0 0 109 109" fill="none" xmlns="http://www.w3.org/2000/svg">
<circle cx="54.1172" cy="55" r="54" fill="white"/>
<path opacity="0.992" fill-rule="evenodd" clip-rule="evenodd" d="M49.3711 0.894531C52.4649 0.894531 55.5585 0.894531 58.6523 0.894531C77.831 3.17053 92.2098 12.6627 101.789 29.3711C105.173 35.9684 107.247 42.9293 108.012 50.2539C108.012 53.3477 108.012 56.4413 108.012 59.5352C105.378 80.6937 94.4096 95.7757 75.1055 104.781C69.7932 106.953 64.3088 108.324 58.6523 108.895C55.5585 108.895 52.4649 108.895 49.3711 108.895C28.2126 106.261 13.1306 95.2924 4.125 75.9883C1.95317 70.676 0.582079 65.1917 0.0117188 59.5352C0.0117188 56.4413 0.0117188 53.3477 0.0117188 50.2539C2.6451 29.0954 13.6139 14.0134 32.918 5.00781C38.2302 2.83599 43.7146 1.46489 49.3711 0.894531ZM33.9727 26.8398C34.6369 26.7789 35.2697 26.8844 35.8711 27.1562C39.4218 30.707 42.9727 34.2579 46.5234 37.8086C46.7198 38.2218 46.8955 38.6437 47.0508 39.0742C46.8955 39.5047 46.7198 39.9266 46.5234 40.3398C44.4141 42.4492 42.3047 44.5586 40.1953 46.668C38.9999 48.342 38.7188 50.1702 39.3516 52.1523C44.0977 58.8671 49.8282 64.5977 56.543 69.3438C58.4806 70.3805 60.3791 70.3103 62.2383 69.1328C64.4179 66.9532 66.5977 64.7734 68.7773 62.5938C69.6211 62.1719 70.4648 62.1719 71.3086 62.5938C75.0061 66.2208 78.6273 69.9122 82.1719 73.668C82.3126 74.2305 82.3126 74.7929 82.1719 75.3555C80.1091 78.123 77.5426 80.2674 74.4727 81.7891C72.0443 82.8535 69.5131 83.2051 66.8789 82.8438C60.3388 81.2957 54.3621 78.5535 48.9492 74.6172C40.5132 68.531 33.8687 60.902 29.0156 51.7305C27.6633 48.9558 26.6086 46.0731 25.8516 43.082C25.2548 39.0381 26.169 35.382 28.5938 32.1133C30.2247 30.1657 32.0177 28.408 33.9727 26.8398Z" fill="#FF001D"/>
</svg>
