<svg width="17" height="16" viewBox="0 0 17 16" fill="none" xmlns="http://www.w3.org/2000/svg">
<g clip-path="url(#clip0_1636_1624)">
<mask id="mask0_1636_1624" style="mask-type:luminance" maskUnits="userSpaceOnUse" x="0" y="0" width="17" height="16">
<path d="M16.5044 0H0.504395V16H16.5044V0Z" fill="white"/>
</mask>
<g mask="url(#mask0_1636_1624)">
<mask id="mask1_1636_1624" style="mask-type:luminance" maskUnits="userSpaceOnUse" x="0" y="0" width="17" height="16">
<path d="M16.5044 0H0.504395V16H16.5044V0Z" fill="white"/>
</mask>
<g mask="url(#mask1_1636_1624)">
<path d="M9.46175 15.9715H6.10151C6.09951 14.4895 5.50907 13.069 4.46 12.0221C3.41004 10.9743 1.98776 10.385 0.504395 10.3833V7.03064C5.03499 6.69036 9.12012 10.7568 9.46175 15.9715Z" fill="#B248FF"/>
<path d="M0.505859 10.3832V7.03056C2.37284 7.02944 4.16327 6.2884 5.48498 4.9698C6.13874 4.31764 6.65766 3.54306 7.01206 2.69034C7.3665 1.83762 7.5495 0.923444 7.55062 0H10.9024C10.8992 2.75302 9.80286 5.39208 7.85454 7.33712C5.9041 9.28424 3.26183 10.3795 0.505859 10.3832Z" fill="#00A8FF"/>
<path d="M16.5041 8.94092C14.1312 8.93716 11.8562 7.99396 10.1767 6.3176C8.49873 4.64296 7.55409 2.37069 7.55029 0H10.9026C10.9045 1.48202 11.495 2.9026 12.5441 3.9494C13.5943 4.99744 15.0169 5.58672 16.5006 5.58824L16.5041 8.94092Z" fill="#FF4352"/>
<path d="M9.46175 15.9715H6.10107C6.10455 13.2173 7.20187 10.5773 9.15163 8.63214C11.1034 6.6849 13.7473 5.59038 16.5043 5.58826V8.9405C14.6377 8.94234 12.8478 9.68366 11.5265 11.0021C10.2067 12.3193 9.46399 14.1068 9.46175 15.9715Z" fill="#46E650"/>
</g>
</g>
</g>
<defs>
<clipPath id="clip0_1636_1624">
<rect width="16" height="16" fill="white" transform="translate(0.504395)"/>
</clipPath>
</defs>
</svg>
